<?xml version="1.0" encoding="utf-8"?>
<!-- Generator: Adobe Illustrator 22.1.0, SVG Export Plug-In . SVG Version: 6.00 Build 0)  -->
<svg version="1.1" id="Layer_1" xmlns="http://www.w3.org/2000/svg" xmlns:xlink="http://www.w3.org/1999/xlink" x="0px" y="0px"
	 viewBox="0 0 79 157.9" style="enable-background:new 0 0 79 157.9;" xml:space="preserve">
<style type="text/css">
	.st0{fill:#FB9733;}
	.st1{fill:#F40C65;}
	.st2{fill:#24003D;}
</style>
<g>
	<g>
		<path class="st0" d="M-333.5,106.8c0,5.3,4.3,9.6,9.6,9.6v9.6c-10.6,0-19.2-8.6-19.2-19.2s8.6-19.2,19.2-19.2v9.6
			C-329.2,97.2-333.5,101.5-333.5,106.8z"/>
		<path class="st1" d="M-314.3,97.2c0-5.3-4.3-9.6-9.6-9.6V78c10.6,0,19.2,8.6,19.2,19.2s-8.6,19.2-19.2,19.2v-9.6
			C-318.6,106.8-314.3,102.5-314.3,97.2z"/>
		<path class="st2" d="M-323.9,87.6v9.6c-3.6,0-6.7,1.9-8.3,4.8c-0.8,1.4-1.3,3.1-1.3,4.8c0,5.3,4.3,9.6,9.6,9.6v-9.6
			c3.6,0,6.7-1.9,8.3-4.8c0.8-1.4,1.3-3.1,1.3-4.8C-314.3,91.9-318.6,87.6-323.9,87.6z"/>
	</g>
	<g>
		<g>
			<path class="st2" d="M-289.4,109c0.5,0,1-0.1,1.4-0.2c0.5-0.1,0.9-0.4,1.2-0.6c0.4-0.3,0.6-0.6,0.9-1c0.2-0.4,0.4-0.8,0.4-1.3
				h1.4c0,0.6-0.2,1.2-0.5,1.8c-0.3,0.5-0.7,1-1.2,1.4c-0.5,0.4-1,0.7-1.7,0.9c-0.6,0.2-1.3,0.3-2,0.3c-1,0-1.9-0.2-2.6-0.6
				c-0.7-0.4-1.4-0.9-1.8-1.5c-0.5-0.6-0.9-1.4-1.1-2.2c-0.2-0.8-0.4-1.7-0.4-2.5v-0.5c0-0.9,0.1-1.7,0.4-2.5
				c0.2-0.8,0.6-1.5,1.1-2.2c0.5-0.6,1.1-1.1,1.8-1.5c0.7-0.4,1.6-0.6,2.6-0.6c0.8,0,1.5,0.1,2.1,0.4c0.6,0.2,1.2,0.6,1.7,1
				c0.5,0.4,0.8,0.9,1.1,1.5c0.3,0.6,0.4,1.2,0.5,1.9h-1.4c0-0.5-0.1-1-0.4-1.4c-0.2-0.4-0.5-0.8-0.8-1.1c-0.3-0.3-0.7-0.6-1.2-0.7
				c-0.5-0.2-1-0.3-1.5-0.3c-0.8,0-1.5,0.2-2,0.5c-0.6,0.3-1,0.7-1.4,1.3c-0.4,0.5-0.6,1.1-0.8,1.8c-0.2,0.7-0.2,1.3-0.2,2v0.5
				c0,0.7,0.1,1.4,0.2,2c0.2,0.7,0.4,1.3,0.8,1.8c0.4,0.5,0.8,0.9,1.4,1.3C-290.9,108.8-290.2,109-289.4,109z"/>
			<path class="st2" d="M-280.3,103c0-0.9,0.2-1.8,0.4-2.6c0.3-0.8,0.7-1.6,1.2-2.2c0.5-0.6,1.1-1.1,1.9-1.5
				c0.8-0.4,1.6-0.6,2.5-0.6c1,0,1.8,0.2,2.6,0.6c0.8,0.4,1.4,0.9,1.9,1.5c0.5,0.6,0.9,1.4,1.2,2.2c0.3,0.8,0.4,1.7,0.4,2.6v0.4
				c0,0.9-0.1,1.8-0.4,2.6c-0.3,0.8-0.7,1.6-1.2,2.2c-0.5,0.6-1.2,1.1-1.9,1.5c-0.7,0.4-1.6,0.5-2.6,0.5c-1,0-1.8-0.2-2.6-0.5
				c-0.8-0.4-1.4-0.9-1.9-1.5c-0.5-0.6-0.9-1.4-1.2-2.2c-0.3-0.8-0.4-1.7-0.4-2.6V103z M-278.8,103.4c0,0.7,0.1,1.4,0.3,2.1
				c0.2,0.7,0.5,1.3,0.9,1.8c0.4,0.5,0.9,0.9,1.4,1.2c0.6,0.3,1.2,0.5,2,0.5c0.7,0,1.4-0.2,2-0.5c0.6-0.3,1-0.7,1.4-1.2
				c0.4-0.5,0.7-1.1,0.9-1.8c0.2-0.7,0.3-1.4,0.3-2.1V103c0-0.7-0.1-1.4-0.3-2.1c-0.2-0.7-0.5-1.3-0.9-1.8c-0.4-0.5-0.9-0.9-1.4-1.2
				c-0.6-0.3-1.2-0.5-2-0.5c-0.7,0-1.4,0.2-2,0.5c-0.6,0.3-1,0.7-1.4,1.2c-0.4,0.5-0.7,1.1-0.9,1.8c-0.2,0.7-0.3,1.4-0.3,2.1V103.4z
				"/>
			<path class="st2" d="M-264.5,103.1c0-0.9,0.1-1.8,0.3-2.6c0.2-0.8,0.6-1.6,1-2.2c0.4-0.6,1-1.2,1.7-1.5c0.7-0.4,1.5-0.6,2.4-0.6
				c0.9,0,1.6,0.2,2.3,0.6c0.7,0.4,1.3,0.9,1.7,1.5v-7.6h1.5V110h-1.4l-0.1-1.8c-0.5,0.7-1.1,1.2-1.8,1.5c-0.7,0.3-1.5,0.5-2.3,0.5
				c-0.9,0-1.7-0.2-2.4-0.6c-0.7-0.4-1.2-0.9-1.7-1.5c-0.4-0.6-0.8-1.4-1-2.2c-0.2-0.8-0.3-1.7-0.3-2.6V103.1z M-263,103.3
				c0,0.7,0.1,1.4,0.2,2c0.1,0.7,0.4,1.3,0.7,1.8c0.3,0.5,0.8,1,1.3,1.3c0.5,0.3,1.2,0.5,1.9,0.5c0.4,0,0.8-0.1,1.2-0.2
				c0.4-0.1,0.7-0.3,1.1-0.5c0.3-0.2,0.6-0.5,0.9-0.7c0.3-0.3,0.5-0.6,0.6-1V100c-0.2-0.4-0.4-0.7-0.6-1c-0.2-0.3-0.5-0.6-0.8-0.8
				c-0.3-0.2-0.7-0.4-1.1-0.5c-0.4-0.1-0.8-0.2-1.2-0.2c-0.8,0-1.4,0.2-2,0.5c-0.5,0.3-1,0.8-1.3,1.3c-0.3,0.5-0.6,1.1-0.7,1.8
				c-0.1,0.7-0.2,1.3-0.2,2V103.3z"/>
			<path class="st2" d="M-242.8,110.3c-0.9,0-1.8-0.2-2.6-0.5c-0.8-0.4-1.4-0.8-2-1.4c-0.6-0.6-1-1.3-1.3-2.1
				c-0.3-0.8-0.5-1.7-0.5-2.6V103c0-1,0.2-1.9,0.5-2.7c0.3-0.8,0.7-1.6,1.3-2.2c0.5-0.6,1.2-1.1,1.9-1.5c0.7-0.4,1.5-0.5,2.4-0.5
				c0.9,0,1.7,0.2,2.4,0.5c0.7,0.3,1.3,0.8,1.8,1.3c0.5,0.6,0.8,1.2,1.1,2c0.2,0.8,0.4,1.6,0.4,2.4v0.9h-10.2v0.3
				c0,0.7,0.1,1.4,0.4,2c0.2,0.7,0.6,1.2,1,1.7c0.4,0.5,0.9,0.9,1.5,1.2c0.6,0.3,1.3,0.4,2,0.4c0.8,0,1.6-0.1,2.3-0.5
				c0.7-0.3,1.3-0.8,1.7-1.4l1,0.7c-0.3,0.4-0.5,0.7-0.9,1c-0.3,0.3-0.7,0.6-1.2,0.8c-0.4,0.2-0.9,0.4-1.4,0.5
				C-241.7,110.2-242.2,110.3-242.8,110.3z M-243,97.4c-0.6,0-1.2,0.1-1.7,0.3c-0.5,0.2-1,0.6-1.3,1c-0.4,0.4-0.7,0.9-1,1.5
				c-0.3,0.6-0.4,1.2-0.5,1.8h8.6v-0.2c0-0.6-0.1-1.1-0.3-1.6c-0.2-0.5-0.5-1-0.8-1.4c-0.3-0.4-0.8-0.7-1.3-1
				C-241.8,97.5-242.4,97.4-243,97.4z"/>
			<path class="st2" d="M-234.2,103.1c0-1,0.1-1.9,0.4-2.7c0.3-0.8,0.7-1.6,1.3-2.2c0.5-0.6,1.2-1.1,2-1.5c0.8-0.4,1.7-0.5,2.7-0.5
				c1,0,1.9,0.2,2.7,0.5c0.8,0.4,1.5,0.8,2,1.5c0.5,0.6,1,1.4,1.3,2.2c0.3,0.8,0.4,1.8,0.4,2.7v0.3c0,1-0.1,1.9-0.4,2.8
				c-0.3,0.8-0.7,1.6-1.2,2.2c-0.5,0.6-1.2,1.1-2,1.5c-0.8,0.3-1.7,0.5-2.7,0.5c-1,0-1.9-0.2-2.7-0.5c-0.8-0.3-1.5-0.8-2-1.5
				c-0.5-0.6-1-1.4-1.3-2.2c-0.3-0.8-0.4-1.8-0.4-2.8V103.1z M-230.7,103.3c0,0.6,0.1,1.1,0.2,1.6c0.1,0.5,0.3,0.9,0.5,1.3
				c0.2,0.4,0.5,0.7,0.9,0.9c0.4,0.2,0.8,0.3,1.4,0.3c0.5,0,1-0.1,1.3-0.3c0.4-0.2,0.7-0.5,0.9-0.9c0.2-0.4,0.4-0.8,0.5-1.3
				c0.1-0.5,0.2-1,0.2-1.6v-0.3c0-0.6-0.1-1.1-0.2-1.6c-0.1-0.5-0.3-0.9-0.5-1.3c-0.2-0.4-0.5-0.7-0.9-0.9c-0.4-0.2-0.8-0.3-1.3-0.3
				c-0.5,0-1,0.1-1.3,0.3c-0.4,0.2-0.7,0.5-0.9,0.9c-0.2,0.4-0.4,0.8-0.5,1.3c-0.1,0.5-0.2,1-0.2,1.6V103.3z"/>
			<path class="st2" d="M-208.5,96.1c0.5,0,1,0,1.5,0.1c0.4,0.1,0.8,0.1,1.1,0.2l-0.5,3.5c-0.5-0.1-0.9-0.2-1.4-0.2
				c-0.5-0.1-0.9-0.1-1.4-0.1c-1,0-1.8,0.2-2.4,0.6c-0.6,0.4-1,0.9-1.3,1.6v8.2h-3.5V96.4h3.3l0.2,2.2c0.6-0.8,1.2-1.4,2-1.8
				C-210.3,96.4-209.4,96.1-208.5,96.1z"/>
			<path class="st2" d="M-190.6,103.3c0,1-0.1,1.9-0.3,2.8c-0.2,0.8-0.6,1.6-1,2.2c-0.4,0.6-1,1.1-1.7,1.4c-0.7,0.3-1.4,0.5-2.3,0.5
				c-0.8,0-1.5-0.1-2.1-0.4c-0.6-0.3-1.1-0.7-1.5-1.3l-0.2,1.4h-3.1V90.7h3.5v6.9c0.4-0.5,0.9-0.8,1.4-1.1c0.5-0.3,1.2-0.4,1.9-0.4
				c0.9,0,1.7,0.2,2.3,0.5c0.7,0.3,1.2,0.8,1.7,1.4c0.4,0.6,0.8,1.3,1,2.2c0.2,0.9,0.3,1.8,0.3,2.8V103.3z M-194.1,103.1
				c0-0.6,0-1.1-0.1-1.6c-0.1-0.5-0.2-0.9-0.4-1.3c-0.2-0.4-0.5-0.7-0.8-0.9c-0.4-0.2-0.8-0.3-1.3-0.3c-0.6,0-1.2,0.1-1.6,0.4
				c-0.4,0.3-0.7,0.6-0.9,1.1v5.4c0.2,0.5,0.5,0.8,0.9,1.1c0.4,0.3,0.9,0.4,1.6,0.4c0.5,0,1-0.1,1.3-0.3c0.3-0.2,0.6-0.5,0.8-0.9
				c0.2-0.4,0.4-0.8,0.4-1.3c0.1-0.5,0.1-1,0.1-1.6V103.1z"/>
			<path class="st2" d="M-186.4,96.4h7.4v10.8h3.7v2.8h-11.1v-2.8h3.9v-7.9h-3.9V96.4z M-182.8,92.9c0-0.3,0-0.5,0.1-0.7
				c0.1-0.2,0.2-0.4,0.4-0.6c0.2-0.2,0.4-0.3,0.6-0.4c0.2-0.1,0.5-0.1,0.8-0.1c0.6,0,1.1,0.2,1.5,0.5c0.4,0.3,0.5,0.8,0.5,1.3
				c0,0.5-0.2,1-0.5,1.3c-0.4,0.3-0.9,0.5-1.5,0.5c-0.3,0-0.6,0-0.8-0.1c-0.2-0.1-0.5-0.2-0.6-0.4c-0.2-0.2-0.3-0.4-0.4-0.6
				C-182.8,93.4-182.8,93.2-182.8,92.9z"/>
			<path class="st2" d="M-165.5,93.1v3.3h5.1V99h-5.1v5.9c0,0.5,0.1,0.9,0.2,1.2c0.1,0.3,0.3,0.6,0.5,0.8c0.2,0.2,0.5,0.3,0.8,0.4
				c0.3,0.1,0.6,0.1,1,0.1c0.3,0,0.5,0,0.8,0c0.3,0,0.5-0.1,0.8-0.1c0.3,0,0.5-0.1,0.7-0.1c0.2,0,0.4-0.1,0.6-0.1l0.3,2.4
				c-0.2,0.1-0.5,0.3-0.9,0.4c-0.3,0.1-0.7,0.2-1,0.3c-0.4,0.1-0.8,0.1-1.2,0.2c-0.4,0-0.8,0.1-1.2,0.1c-0.7,0-1.4-0.1-2-0.3
				c-0.6-0.2-1.1-0.5-1.6-0.9c-0.4-0.4-0.8-0.9-1-1.6c-0.2-0.6-0.4-1.4-0.4-2.3V99h-3.1v-2.6h3.1v-3.3H-165.5z"/>
		</g>
	</g>
</g>
<path class="st0" d="M191.5,79c0-21.8,17.7-39.5,39.5-39.5V0c-43.6,0-79,35.3-79,79s35.3,79,79,79v-39.5
	C209.1,118.4,191.5,100.8,191.5,79z"/>
<path class="st1" d="M39.5,79c0-21.8-17.7-39.5-39.5-39.5V0c43.6,0,79,35.3,79,79s-35.3,79-79,79v-39.5
	C21.8,118.4,39.5,100.8,39.5,79z"/>
</svg>
