<?xml version="1.0" encoding="utf-8"?>
<!-- Generator: Adobe Illustrator 22.1.0, SVG Export Plug-In . SVG Version: 6.00 Build 0)  -->
<svg version="1.1" id="Layer_1" xmlns="http://www.w3.org/2000/svg" xmlns:xlink="http://www.w3.org/1999/xlink" x="0px" y="0px"
	 viewBox="0 0 174.4 48" style="enable-background:new 0 0 174.4 48;" xml:space="preserve">
<style type="text/css">
	.st0{fill:#FB9733;}
	.st1{fill:#F40C65;}
	.st2{fill:#24003D;}
	.st3{fill:#FFFFFF;}
	.st4{fill:#F79635;}
	.st5{fill:#EC1966;}
	.st6{fill:#361C5C;}
</style>
<path class="st0" d="M760-7c0-21.8,17.7-39.5,39.5-39.5v-39.4c-43.6,0-79,35.3-79,79s35.3,79,79,79V32.6C777.7,32.5,760,14.9,760-7z
	"/>
<path class="st1" d="M608.6-5.9c0-22.1-17.9-40-40-40v-40c44.2,0,80,35.8,80,80s-35.8,80-80,80v-40C590.7,34.1,608.6,16.2,608.6-5.9
	z"/>
<g>
	<path class="st0" d="M-86.9-86.2c0,5.3,4.3,9.6,9.6,9.6v9.6c-10.6,0-19.2-8.6-19.2-19.2s8.6-19.2,19.2-19.2v9.6
		C-82.6-95.8-86.9-91.5-86.9-86.2z"/>
	<path class="st1" d="M-67.7-95.8c0-5.3-4.3-9.6-9.6-9.6v-9.6c10.6,0,19.2,8.6,19.2,19.2s-8.6,19.2-19.2,19.2v-9.6
		C-72-86.2-67.7-90.5-67.7-95.8z"/>
	<path class="st2" d="M-77.3-105.4v9.6c-3.6,0-6.7,1.9-8.3,4.8c-0.8,1.4-1.3,3.1-1.3,4.8c0,5.3,4.3,9.6,9.6,9.6v-9.6
		c3.6,0,6.7-1.9,8.3-4.8c0.8-1.4,1.3-3.1,1.3-4.8C-67.7-101.1-72-105.4-77.3-105.4z"/>
</g>
<g>
	<path d="M-45.7-93c0.4-0.6,0.9-1.1,1.5-1.4s1.2-0.5,2-0.5c0.6,0,1.2,0.1,1.8,0.3c0.5,0.2,1,0.5,1.4,0.9s0.7,0.9,0.9,1.6
		c0.2,0.6,0.3,1.4,0.3,2.3v7.4h-3.1v-7.4c0-0.4-0.1-0.8-0.2-1.1c-0.1-0.3-0.3-0.6-0.5-0.8c-0.2-0.2-0.4-0.3-0.7-0.4s-0.6-0.1-1-0.1
		c-0.5,0-1,0.1-1.4,0.3c-0.4,0.2-0.7,0.5-1,0.8v8.8h-3.1v-17.5h3.1V-93z"/>
	<path d="M-30.9-84.9h7.2v2.5h-11.5v-1.9l6.8-7.7h-6.7v-2.6h11v1.9L-30.9-84.9z"/>
	<path d="M-15.5-83.3c0.5,0,0.9-0.1,1.3-0.2c0.4-0.1,0.8-0.3,1.1-0.6c0.3-0.2,0.6-0.5,0.8-0.9s0.3-0.7,0.3-1.2h1.3
		c0,0.6-0.2,1.1-0.5,1.6s-0.6,0.9-1.1,1.3c-0.4,0.4-0.9,0.6-1.5,0.8s-1.2,0.3-1.8,0.3c-0.9,0-1.7-0.2-2.3-0.5
		c-0.7-0.3-1.2-0.8-1.7-1.4c-0.4-0.6-0.8-1.2-1-1.9s-0.3-1.5-0.3-2.3v-0.5c0-0.8,0.1-1.6,0.3-2.3c0.2-0.7,0.6-1.4,1-1.9
		c0.4-0.6,1-1,1.7-1.4c0.7-0.3,1.4-0.5,2.3-0.5c0.7,0,1.3,0.1,1.9,0.3c0.6,0.2,1.1,0.5,1.5,0.9s0.8,0.8,1,1.4
		c0.2,0.5,0.4,1.1,0.4,1.7h-1.3c0-0.5-0.1-0.9-0.3-1.3s-0.4-0.7-0.7-1s-0.7-0.5-1.1-0.7c-0.4-0.2-0.9-0.2-1.4-0.2
		c-0.7,0-1.3,0.1-1.8,0.4s-0.9,0.7-1.2,1.1c-0.3,0.5-0.5,1-0.7,1.6c-0.1,0.6-0.2,1.2-0.2,1.8v0.5c0,0.6,0.1,1.2,0.2,1.8
		c0.1,0.6,0.4,1.1,0.7,1.6s0.7,0.8,1.2,1.1C-16.8-83.5-16.2-83.3-15.5-83.3z"/>
	<path d="M1.5-94.9c0.3,0,0.7,0,1,0.1c0.3,0,0.6,0.1,0.8,0.2l-0.2,1.3c-0.3-0.1-0.6-0.1-0.9-0.2c-0.3,0-0.6-0.1-1-0.1
		c-1.1,0-2.1,0.3-2.9,0.8s-1.4,1.4-1.7,2.5v7.8h-1.4v-12.1h1.3l0.1,2.1v0.2c0.5-0.8,1.2-1.4,2-1.9C-0.5-94.6,0.4-94.9,1.5-94.9z"/>
	<path d="M12.5-82.2c-0.9,0-1.6-0.2-2.3-0.5S8.9-83.4,8.4-84c-0.5-0.5-0.9-1.2-1.2-1.9c-0.3-0.7-0.4-1.5-0.4-2.3v-0.5
		c0-0.9,0.2-1.7,0.4-2.4c0.3-0.8,0.7-1.4,1.2-2s1.1-1,1.7-1.3c0.7-0.3,1.4-0.5,2.1-0.5c0.8,0,1.5,0.1,2.2,0.4
		c0.6,0.3,1.2,0.7,1.6,1.2s0.7,1.1,1,1.8c0.2,0.7,0.3,1.4,0.3,2.2v0.8H8.2v0.3c0,0.6,0.1,1.3,0.3,1.8c0.2,0.6,0.5,1.1,0.9,1.5
		s0.8,0.8,1.4,1.1c0.5,0.3,1.1,0.4,1.8,0.4c0.8,0,1.4-0.1,2-0.4s1.1-0.7,1.6-1.2l0.9,0.6c-0.2,0.3-0.5,0.6-0.8,0.9s-0.7,0.5-1,0.7
		c-0.4,0.2-0.8,0.3-1.2,0.4C13.5-82.3,13-82.2,12.5-82.2z M12.3-93.7c-0.5,0-1.1,0.1-1.5,0.3c-0.5,0.2-0.9,0.5-1.2,0.9
		S9-91.7,8.7-91.2c-0.2,0.5-0.4,1-0.5,1.6h7.7v-0.1c0-0.5-0.1-1-0.3-1.5s-0.4-0.9-0.7-1.3s-0.7-0.7-1.1-0.9S12.9-93.7,12.3-93.7z"/>
	<path d="M29.6-82.4c-0.1-0.2-0.1-0.5-0.2-0.8c0-0.3-0.1-0.6-0.1-0.9c-0.2,0.3-0.5,0.5-0.8,0.8c-0.3,0.2-0.6,0.5-1,0.6
		c-0.4,0.2-0.8,0.3-1.2,0.4c-0.4,0.1-0.9,0.2-1.3,0.2c-0.6,0-1.1-0.1-1.6-0.2c-0.5-0.2-0.9-0.4-1.3-0.7s-0.7-0.7-0.9-1.1
		c-0.2-0.4-0.3-0.9-0.3-1.4c0-0.7,0.2-1.3,0.5-1.8s0.7-0.9,1.3-1.2c0.5-0.3,1.1-0.5,1.8-0.7c0.7-0.1,1.4-0.2,2.2-0.2h2.6v-1.4
		c0-0.5-0.1-0.9-0.3-1.2c-0.2-0.4-0.4-0.6-0.7-0.9c-0.3-0.2-0.7-0.4-1.1-0.5s-0.9-0.2-1.3-0.2s-0.9,0.1-1.2,0.2
		c-0.4,0.1-0.7,0.3-1.1,0.5c-0.3,0.2-0.6,0.5-0.7,0.8c-0.2,0.3-0.3,0.6-0.3,1h-1.4c0-0.5,0.2-1,0.4-1.4c0.3-0.4,0.6-0.8,1-1.1
		c0.4-0.3,0.9-0.6,1.5-0.8c0.6-0.2,1.2-0.3,1.8-0.3c0.6,0,1.3,0.1,1.8,0.2c0.6,0.2,1.1,0.4,1.5,0.7c0.4,0.3,0.7,0.7,1,1.2
		c0.2,0.5,0.4,1.1,0.4,1.7v5.9c0,0.4,0,0.8,0.1,1.2c0.1,0.4,0.2,0.8,0.3,1.2v0.1L29.6-82.4L29.6-82.4z M25.1-83.4
		c0.5,0,0.9,0,1.4-0.2c0.4-0.1,0.8-0.3,1.2-0.5c0.4-0.2,0.7-0.5,1-0.8s0.5-0.6,0.7-1v-2.7h-2.5c-0.6,0-1.2,0-1.7,0.1s-1,0.2-1.5,0.4
		c-0.4,0.2-0.8,0.5-1,0.8c-0.3,0.3-0.4,0.8-0.4,1.3c0,0.4,0.1,0.7,0.2,1c0.2,0.3,0.4,0.5,0.6,0.8c0.3,0.2,0.6,0.4,0.9,0.5
		C24.4-83.4,24.7-83.4,25.1-83.4z"/>
	<path d="M39.6-97.8v3.1h4.5v1.1h-4.5v7.7c0,0.5,0.1,0.9,0.2,1.2s0.3,0.6,0.6,0.8c0.2,0.2,0.5,0.3,0.8,0.4s0.7,0.1,1,0.1
		c0.4,0,0.8,0,1.2-0.1s0.7-0.1,1-0.2l0.2,1c-0.3,0.1-0.7,0.2-1.2,0.3c-0.5,0.1-0.9,0.1-1.4,0.1s-1-0.1-1.5-0.2s-0.9-0.3-1.2-0.6
		c-0.3-0.3-0.6-0.7-0.8-1.1c-0.2-0.5-0.3-1-0.3-1.7v-7.7h-3.4v-1.1h3.4v-3.1C38.2-97.8,39.6-97.8,39.6-97.8z"/>
	<path d="M49.3-94.6H55v11h4.2v1.2h-9.8v-1.2h4.3v-9.8h-4.3L49.3-94.6L49.3-94.6z M53.2-98c0-0.3,0.1-0.5,0.2-0.7
		c0.2-0.2,0.4-0.3,0.8-0.3s0.6,0.1,0.8,0.3c0.2,0.2,0.2,0.4,0.2,0.7s-0.1,0.5-0.2,0.7c-0.2,0.2-0.4,0.3-0.8,0.3s-0.6-0.1-0.8-0.3
		C53.3-97.5,53.2-97.7,53.2-98z"/>
	<path d="M67.5-84.3l0.1,0.2l0.1-0.2l4.2-10.4h1.4l-5.1,12.2h-1.1l-5.2-12.1h1.4L67.5-84.3z"/>
	<path d="M81.9-82.2c-0.9,0-1.6-0.2-2.3-0.5c-0.7-0.3-1.3-0.7-1.8-1.3c-0.5-0.5-0.9-1.2-1.2-1.9c-0.3-0.7-0.4-1.5-0.4-2.3v-0.5
		c0-0.9,0.2-1.7,0.4-2.4c0.3-0.8,0.7-1.4,1.2-2s1.1-1,1.7-1.3c0.7-0.3,1.4-0.5,2.1-0.5c0.8,0,1.5,0.1,2.2,0.4
		c0.6,0.3,1.2,0.7,1.6,1.2s0.7,1.1,1,1.8c0.2,0.7,0.3,1.4,0.3,2.2v0.8h-9.1v0.3c0,0.6,0.1,1.3,0.3,1.8c0.2,0.6,0.5,1.1,0.9,1.5
		s0.8,0.8,1.4,1.1c0.5,0.3,1.1,0.4,1.8,0.4c0.8,0,1.4-0.1,2-0.4s1.1-0.7,1.6-1.2l0.9,0.6c-0.2,0.3-0.5,0.6-0.8,0.9s-0.7,0.5-1,0.7
		c-0.4,0.2-0.8,0.3-1.2,0.4C83.1-82.3,82.4-82.2,81.9-82.2z M81.7-93.7c-0.5,0-1.1,0.1-1.5,0.3c-0.5,0.2-0.9,0.5-1.2,0.9
		c-0.3,0.4-0.6,0.8-0.9,1.3c-0.2,0.5-0.4,1-0.5,1.6h7.7v-0.1c0-0.5-0.1-1-0.3-1.5s-0.4-0.9-0.7-1.3c-0.3-0.4-0.7-0.7-1.1-0.9
		S82.3-93.7,81.7-93.7z"/>
</g>
<g>
	<path class="st3" d="M57.5,31.1c-0.7,0.2-1.4,0.4-2.1,0.4c-1.2,0-2.2-0.3-3.2-0.8c-0.9-0.5-1.7-1.2-2.2-2.2c-0.5-0.9-0.8-2-0.8-3.1
		s0.3-2.2,0.8-3.1c0.5-0.9,1.3-1.6,2.2-2.2c0.9-0.5,1.9-0.8,3-0.8c1.6,0,3,0.5,4.1,1.4l-0.7,1c-1-0.8-2.1-1.2-3.2-1.2
		c-0.9,0-1.7,0.2-2.4,0.7c-0.7,0.4-1.3,1-1.7,1.8c-0.4,0.8-0.6,1.6-0.6,2.5c0,0.9,0.2,1.7,0.6,2.5c0.4,0.7,1,1.3,1.8,1.8
		c0.7,0.4,1.6,0.7,2.5,0.7c1.1,0,2.1-0.3,3.1-1l0.8,0.9C58.8,30.6,58.2,30.9,57.5,31.1z"/>
	<path class="st3" d="M63,22.3c0.5-0.9,1.3-1.7,2.2-2.2c1-0.5,2-0.8,3.1-0.8c1.1,0,2.2,0.3,3.2,0.8c1,0.5,1.7,1.3,2.2,2.2
		c0.5,0.9,0.8,2,0.8,3.1c0,1.1-0.3,2.2-0.8,3.1c-0.5,0.9-1.3,1.7-2.2,2.2c-0.9,0.5-2,0.8-3.2,0.8c-1.2,0-2.2-0.3-3.2-0.8
		s-1.7-1.3-2.2-2.2c-0.5-0.9-0.8-2-0.8-3.2C62.1,24.3,62.4,23.2,63,22.3z M64.2,27.9c0.4,0.8,1,1.3,1.7,1.8c0.7,0.4,1.5,0.7,2.4,0.7
		c0.9,0,1.7-0.2,2.4-0.7c0.7-0.4,1.3-1,1.7-1.8c0.4-0.8,0.6-1.6,0.6-2.5c0-0.9-0.2-1.7-0.6-2.5c-0.4-0.8-1-1.4-1.7-1.8
		c-0.7-0.4-1.5-0.7-2.4-0.7c-0.9,0-1.7,0.2-2.4,0.7c-0.7,0.5-1.3,1.1-1.7,1.8c-0.4,0.8-0.6,1.6-0.6,2.4
		C63.5,26.3,63.7,27.1,64.2,27.9z"/>
	<path class="st3" d="M90.1,13.8v17.5h-1.4v-2.4c-0.5,0.8-1.3,1.4-2.2,1.9c-0.9,0.5-1.9,0.7-3,0.7c-1.1,0-2.1-0.3-3-0.8
		c-0.9-0.5-1.6-1.3-2.1-2.2c-0.5-0.9-0.8-2-0.8-3.1c0-1.2,0.3-2.3,0.8-3.2c0.5-0.9,1.3-1.6,2.2-2.1c0.9-0.5,1.9-0.7,3.1-0.7
		c1,0,2,0.2,2.9,0.7c0.9,0.5,1.7,1.2,2.2,2v-8.2H90.1z M87.2,29c0.9-0.8,1.4-1.9,1.5-3.2v-1.5c-0.2-1.1-0.8-2.1-1.7-2.8
		c-0.9-0.8-2-1.1-3.2-1.1c-0.9,0-1.7,0.2-2.4,0.6c-0.7,0.4-1.3,1-1.8,1.7c-0.4,0.7-0.7,1.6-0.7,2.5c0,0.9,0.2,1.7,0.7,2.5
		s1,1.4,1.8,1.8c0.7,0.4,1.6,0.7,2.4,0.7C85.1,30.3,86.3,29.9,87.2,29z"/>
	<path class="st3" d="M103.9,29l0.7,1c-0.6,0.5-1.2,0.8-1.9,1.1s-1.5,0.4-2.2,0.4c-1.2,0-2.3-0.3-3.2-0.8c-0.9-0.5-1.7-1.3-2.2-2.2
		c-0.5-0.9-0.8-2-0.8-3.1c0-1.1,0.3-2.1,0.8-3.1c0.6-0.9,1.3-1.7,2.3-2.2c1-0.6,2-0.8,3.1-0.8c1.3,0,2.5,0.4,3.4,1.2
		s1.6,1.9,2.1,3.2l-9.9,3.8c0.4,0.8,1,1.5,1.7,2c0.8,0.5,1.7,0.8,2.7,0.8C101.7,30.3,102.9,29.9,103.9,29z M98,21.1
		c-0.7,0.4-1.3,1-1.7,1.8c-0.4,0.7-0.6,1.6-0.6,2.5c0,0.4,0,0.8,0.1,1.1l8.6-3.4c-0.4-0.8-0.9-1.4-1.6-1.9c-0.7-0.5-1.5-0.7-2.3-0.7
		C99.5,20.4,98.7,20.7,98,21.1z"/>
	<path class="st3" d="M109.4,21.4c0.6-1,1.4-1.8,2.5-2.4c1.1-0.6,2.3-0.9,3.7-0.9c1.4,0,2.6,0.3,3.6,0.9c1.1,0.6,1.9,1.4,2.5,2.4
		c0.6,1,0.9,2.2,0.9,3.4c0,1.3-0.3,2.4-0.9,3.4c-0.6,1-1.4,1.8-2.5,2.4c-1.1,0.6-2.3,0.9-3.7,0.9c-1.3,0-2.6-0.3-3.6-0.8
		c-1.1-0.5-1.9-1.3-2.5-2.3c-0.6-1-0.9-2.2-0.9-3.6C108.5,23.6,108.8,22.5,109.4,21.4z M112.9,27.7c0.7,0.8,1.6,1.1,2.6,1.1
		c1.1,0,1.9-0.4,2.6-1.1s1-1.7,1-2.9s-0.3-2.1-1-2.9c-0.7-0.8-1.6-1.1-2.6-1.1c-1,0-1.9,0.4-2.6,1.2c-0.7,0.8-1,1.7-1,2.8
		C111.8,26,112.2,26.9,112.9,27.7z"/>
	<path class="st3" d="M130.7,19.8c0.6-0.5,1.2-0.9,1.9-1.2c0.6-0.3,1.2-0.4,1.6-0.4l-0.1,3.3c-0.9-0.1-1.7,0.1-2.4,0.5
		s-1.3,1-1.7,1.7c-0.4,0.7-0.6,1.5-0.6,2.2v5.4H126V18.7h3l0.2,2.9C129.6,20.9,130.1,20.3,130.7,19.8z"/>
	<path class="st3" d="M149,18.9c0.9,0.5,1.7,1.3,2.2,2.3c0.5,1,0.8,2.2,0.8,3.5c0,1.4-0.3,2.6-0.9,3.6c-0.6,1-1.4,1.8-2.4,2.4
		c-1,0.6-2.1,0.8-3.3,0.8c-1,0-1.9-0.2-2.6-0.5c-0.8-0.4-1.4-0.8-2-1.5v1.7h-3.3V13.2h3.3V20c0.5-0.6,1.2-1,2.1-1.4
		c0.9-0.3,1.9-0.5,2.9-0.5C147.1,18.1,148.1,18.4,149,18.9z M147.6,27.6c0.7-0.8,1.1-1.7,1.1-2.9c0-0.7-0.2-1.4-0.5-2
		c-0.3-0.6-0.8-1.1-1.4-1.4c-0.6-0.3-1.2-0.5-1.9-0.5c-0.9,0-1.7,0.2-2.5,0.7s-1.2,1.1-1.4,1.9v2.8c0.3,0.8,0.8,1.5,1.5,1.9
		c0.7,0.5,1.5,0.7,2.4,0.7C145.9,28.8,146.8,28.4,147.6,27.6z"/>
	<path class="st3" d="M156,12.9c0.4-0.3,0.8-0.5,1.3-0.5c0.5,0,0.9,0.2,1.3,0.5c0.4,0.3,0.6,0.8,0.6,1.3c0,0.5-0.2,0.9-0.6,1.2
		c-0.4,0.3-0.8,0.5-1.3,0.5c-0.5,0-0.9-0.2-1.3-0.5c-0.4-0.3-0.6-0.8-0.6-1.2C155.4,13.7,155.6,13.3,156,12.9z M158.9,18.7v12.6
		h-3.3V18.7H158.9z"/>
	<path class="st3" d="M168,13.2v5.5h3.3v2.6H168v10h-3.3v-10h-2.2v-2.6h2.2v-5.5H168z"/>
</g>
<g>
	<path class="st4" d="M9.6,28.8c0,5.3,4.3,9.6,9.6,9.6V48C8.6,48,0,39.4,0,28.8S8.6,9.6,19.2,9.6v9.6C13.9,19.2,9.6,23.5,9.6,28.8z"
		/>
	<path class="st5" d="M28.8,19.2c0-5.3-4.3-9.6-9.6-9.6V0c10.6,0,19.2,8.6,19.2,19.2s-8.6,19.2-19.2,19.2v-9.6
		C24.5,28.8,28.8,24.5,28.8,19.2z"/>
	<path class="st6" d="M19.2,9.6v9.6c-3.6,0-6.7,1.9-8.3,4.8c-0.8,1.4-1.3,3.1-1.3,4.8c0,5.3,4.3,9.6,9.6,9.6v-9.6
		c3.6,0,6.7-1.9,8.3-4.8c0.8-1.4,1.3-3.1,1.3-4.8C28.8,13.9,24.5,9.6,19.2,9.6z"/>
</g>
<g>
	<path class="st4" d="M9.6,28.8c0,5.3,4.3,9.6,9.6,9.6V48C8.6,48,0,39.4,0,28.8S8.6,9.6,19.2,9.6v9.6C13.9,19.2,9.6,23.5,9.6,28.8z"
		/>
	<path class="st5" d="M28.8,19.2c0-5.3-4.3-9.6-9.6-9.6V0c10.6,0,19.2,8.6,19.2,19.2s-8.6,19.2-19.2,19.2v-9.6
		C24.5,28.8,28.8,24.5,28.8,19.2z"/>
	<path class="st6" d="M19.2,9.6v9.6c-3.6,0-6.7,1.9-8.3,4.8c-0.8,1.4-1.3,3.1-1.3,4.8c0,5.3,4.3,9.6,9.6,9.6v-9.6
		c3.6,0,6.7-1.9,8.3-4.8c0.8-1.4,1.3-3.1,1.3-4.8C28.8,13.9,24.5,9.6,19.2,9.6z"/>
</g>
<polygon class="st3" points="9.6,25.9 10.5,27.8 12.6,28.1 11.1,29.6 11.5,31.7 9.6,30.7 7.7,31.7 8.1,29.6 6.6,28.1 8.7,27.8 "/>
<polygon class="st3" points="28.8,14.4 30.4,17.7 34,18.2 31.4,20.7 32,24.3 28.8,22.6 25.6,24.3 26.2,20.7 23.6,18.2 27.2,17.7 "/>
<polygon class="st3" points="19.2,21.9 19.7,23.3 21.2,23.3 20,24.3 20.4,25.7 19.2,24.8 18,25.7 18.4,24.3 17.2,23.3 18.7,23.3 "/>
</svg>
