<?xml version="1.0" encoding="utf-8"?>
<!-- Generator: Adobe Illustrator 22.1.0, SVG Export Plug-In . SVG Version: 6.00 Build 0)  -->
<svg version="1.1" id="Layer_1" xmlns="http://www.w3.org/2000/svg" xmlns:xlink="http://www.w3.org/1999/xlink" x="0px" y="0px"
	 viewBox="0 0 38.4 48" style="enable-background:new 0 0 38.4 48;" xml:space="preserve">
<style type="text/css">
	.st0{fill:#FB9733;}
	.st1{fill:#F40C65;}
	.st2{fill:#24003D;}
</style>
<g>
	<g>
		<path class="st0" d="M9.6,28.9c0,5.3,4.3,9.6,9.6,9.6v9.6C8.6,48.1,0,39.5,0,28.9S8.6,9.7,19.2,9.7v9.6
			C13.9,19.3,9.6,23.6,9.6,28.9z"/>
		<path class="st1" d="M28.8,19.3c0-5.3-4.3-9.6-9.6-9.6V0.1c10.6,0,19.2,8.6,19.2,19.2s-8.6,19.2-19.2,19.2v-9.6
			C24.5,28.9,28.8,24.6,28.8,19.3z"/>
		<path class="st2" d="M19.2,9.7v9.6c-3.6,0-6.7,1.9-8.3,4.8c-0.8,1.4-1.3,3.1-1.3,4.8c0,5.3,4.3,9.6,9.6,9.6v-9.6
			c3.6,0,6.7-1.9,8.3-4.8c0.8-1.4,1.3-3.1,1.3-4.8C28.8,14,24.5,9.7,19.2,9.7z"/>
	</g>
	<g>
		<g>
			<path class="st2" d="M53.6,31.1c0.5,0,1-0.1,1.4-0.2c0.5-0.1,0.9-0.4,1.2-0.6s0.6-0.6,0.9-1c0.2-0.4,0.4-0.8,0.4-1.3H59
				c0,0.6-0.2,1.2-0.5,1.8c-0.3,0.5-0.7,1-1.2,1.4c-0.5,0.4-1,0.7-1.7,0.9c-0.6,0.2-1.3,0.3-2,0.3c-1,0-1.9-0.2-2.6-0.6
				c-0.7-0.4-1.4-0.9-1.8-1.5c-0.5-0.6-0.9-1.4-1.1-2.2c-0.2-0.8-0.4-1.7-0.4-2.5V25c0-0.9,0.1-1.7,0.4-2.5c0.2-0.8,0.6-1.5,1.1-2.2
				c0.5-0.6,1.1-1.1,1.8-1.5c0.7-0.4,1.6-0.6,2.6-0.6c0.8,0,1.5,0.1,2.1,0.4c0.6,0.2,1.2,0.6,1.7,1c0.5,0.4,0.8,0.9,1.1,1.5
				c0.3,0.6,0.4,1.2,0.5,1.9h-1.4c0-0.5-0.1-1-0.4-1.4c-0.2-0.4-0.5-0.8-0.8-1.1c-0.3-0.3-0.7-0.6-1.2-0.7c-0.5-0.2-1-0.3-1.5-0.3
				c-0.8,0-1.5,0.2-2,0.5c-0.6,0.3-1,0.7-1.4,1.3c-0.4,0.5-0.6,1.1-0.8,1.8c-0.2,0.7-0.2,1.3-0.2,2v0.5c0,0.7,0.1,1.4,0.2,2
				c0.2,0.7,0.4,1.3,0.8,1.8c0.4,0.5,0.8,0.9,1.4,1.3C52.2,30.9,52.8,31.1,53.6,31.1z"/>
			<path class="st2" d="M62.8,25.1c0-0.9,0.2-1.8,0.4-2.6c0.3-0.8,0.7-1.6,1.2-2.2c0.5-0.6,1.1-1.1,1.9-1.5c0.8-0.4,1.6-0.6,2.5-0.6
				c1,0,1.8,0.2,2.6,0.6c0.8,0.4,1.4,0.9,1.9,1.5c0.5,0.6,0.9,1.4,1.2,2.2c0.3,0.8,0.4,1.7,0.4,2.6v0.4c0,0.9-0.1,1.8-0.4,2.6
				c-0.3,0.8-0.7,1.6-1.2,2.2c-0.5,0.6-1.2,1.1-1.9,1.5c-0.7,0.4-1.6,0.5-2.6,0.5c-1,0-1.8-0.2-2.6-0.5c-0.8-0.4-1.4-0.9-1.9-1.5
				c-0.5-0.6-0.9-1.4-1.2-2.2c-0.3-0.8-0.4-1.7-0.4-2.6V25.1z M64.3,25.5c0,0.7,0.1,1.4,0.3,2.1c0.2,0.7,0.5,1.3,0.9,1.8
				c0.4,0.5,0.9,0.9,1.4,1.2c0.6,0.3,1.2,0.5,2,0.5c0.7,0,1.4-0.2,2-0.5c0.6-0.3,1-0.7,1.4-1.2c0.4-0.5,0.7-1.1,0.9-1.8
				c0.2-0.7,0.3-1.4,0.3-2.1v-0.4c0-0.7-0.1-1.4-0.3-2.1c-0.2-0.7-0.5-1.3-0.9-1.8c-0.4-0.5-0.9-0.9-1.4-1.2c-0.6-0.3-1.2-0.5-2-0.5
				c-0.7,0-1.4,0.2-2,0.5c-0.6,0.3-1,0.7-1.4,1.2c-0.4,0.5-0.7,1.1-0.9,1.8c-0.2,0.7-0.3,1.4-0.3,2.1V25.5z"/>
			<path class="st2" d="M78.6,25.2c0-0.9,0.1-1.8,0.3-2.6c0.2-0.8,0.6-1.6,1-2.2c0.4-0.6,1-1.2,1.7-1.5c0.7-0.4,1.5-0.6,2.4-0.6
				c0.9,0,1.6,0.2,2.3,0.6c0.7,0.4,1.3,0.9,1.7,1.5v-7.6h1.5v19.3h-1.4l-0.1-1.8c-0.5,0.7-1.1,1.2-1.8,1.5c-0.7,0.3-1.5,0.5-2.3,0.5
				c-0.9,0-1.7-0.2-2.4-0.6c-0.7-0.4-1.2-0.9-1.7-1.5c-0.4-0.6-0.8-1.4-1-2.2c-0.2-0.8-0.3-1.7-0.3-2.6V25.2z M80.1,25.4
				c0,0.7,0.1,1.4,0.2,2c0.1,0.7,0.4,1.3,0.7,1.8c0.3,0.5,0.8,1,1.3,1.3c0.5,0.3,1.2,0.5,1.9,0.5c0.4,0,0.8-0.1,1.2-0.2
				c0.4-0.1,0.7-0.3,1.1-0.5c0.3-0.2,0.6-0.5,0.9-0.7c0.3-0.3,0.5-0.6,0.6-1v-6.6c-0.2-0.4-0.4-0.7-0.6-1c-0.2-0.3-0.5-0.6-0.8-0.8
				c-0.3-0.2-0.7-0.4-1.1-0.5c-0.4-0.1-0.8-0.2-1.2-0.2c-0.8,0-1.4,0.2-2,0.5c-0.5,0.3-1,0.8-1.3,1.3c-0.3,0.5-0.6,1.1-0.7,1.8
				c-0.1,0.7-0.2,1.3-0.2,2V25.4z"/>
			<path class="st2" d="M100.3,32.3c-0.9,0-1.8-0.2-2.6-0.5c-0.8-0.4-1.4-0.8-2-1.4c-0.6-0.6-1-1.3-1.3-2.1
				c-0.3-0.8-0.5-1.7-0.5-2.6v-0.5c0-1,0.2-1.9,0.5-2.7c0.3-0.8,0.7-1.6,1.3-2.2c0.5-0.6,1.2-1.1,1.9-1.5c0.7-0.4,1.5-0.5,2.4-0.5
				c0.9,0,1.7,0.2,2.4,0.5c0.7,0.3,1.3,0.8,1.8,1.3c0.5,0.6,0.8,1.2,1.1,2c0.2,0.8,0.4,1.6,0.4,2.4v0.9H95.5v0.3
				c0,0.7,0.1,1.4,0.4,2c0.2,0.7,0.6,1.2,1,1.7c0.4,0.5,0.9,0.9,1.5,1.2c0.6,0.3,1.3,0.4,2,0.4c0.8,0,1.6-0.1,2.3-0.5
				c0.7-0.3,1.3-0.8,1.7-1.4l1,0.7c-0.3,0.4-0.5,0.7-0.9,1c-0.3,0.3-0.7,0.6-1.2,0.8c-0.4,0.2-0.9,0.4-1.4,0.5
				C101.4,32.3,100.9,32.3,100.3,32.3z M100,19.5c-0.6,0-1.2,0.1-1.7,0.3c-0.5,0.2-1,0.6-1.3,1c-0.4,0.4-0.7,0.9-1,1.5
				c-0.3,0.6-0.4,1.2-0.5,1.8h8.6v-0.2c0-0.6-0.1-1.1-0.3-1.6c-0.2-0.5-0.5-1-0.8-1.4c-0.3-0.4-0.8-0.7-1.3-1S100.7,19.5,100,19.5z"
				/>
			<path class="st2" d="M108.8,25.2c0-1,0.1-1.9,0.4-2.7c0.3-0.8,0.7-1.6,1.3-2.2c0.5-0.6,1.2-1.1,2-1.5c0.8-0.4,1.7-0.5,2.7-0.5
				c1,0,1.9,0.2,2.7,0.5c0.8,0.4,1.5,0.8,2,1.5c0.5,0.6,1,1.4,1.3,2.2c0.3,0.8,0.4,1.8,0.4,2.7v0.3c0,1-0.1,1.9-0.4,2.8
				c-0.3,0.8-0.7,1.6-1.2,2.2c-0.5,0.6-1.2,1.1-2,1.5c-0.8,0.3-1.7,0.5-2.7,0.5c-1,0-1.9-0.2-2.7-0.5c-0.8-0.3-1.5-0.8-2-1.5
				c-0.5-0.6-1-1.4-1.3-2.2c-0.3-0.8-0.4-1.8-0.4-2.8V25.2z M112.3,25.4c0,0.6,0.1,1.1,0.2,1.6c0.1,0.5,0.3,0.9,0.5,1.3
				c0.2,0.4,0.5,0.7,0.9,0.9c0.4,0.2,0.8,0.3,1.4,0.3c0.5,0,1-0.1,1.3-0.3c0.4-0.2,0.7-0.5,0.9-0.9c0.2-0.4,0.4-0.8,0.5-1.3
				c0.1-0.5,0.2-1,0.2-1.6v-0.3c0-0.6-0.1-1.1-0.2-1.6c-0.1-0.5-0.3-0.9-0.5-1.3c-0.2-0.4-0.5-0.7-0.9-0.9c-0.4-0.2-0.8-0.3-1.3-0.3
				c-0.5,0-1,0.1-1.3,0.3c-0.4,0.2-0.7,0.5-0.9,0.9c-0.2,0.4-0.4,0.8-0.5,1.3c-0.1,0.5-0.2,1-0.2,1.6V25.4z"/>
			<path class="st2" d="M134.6,18.2c0.5,0,1,0,1.5,0.1c0.4,0.1,0.8,0.1,1.1,0.2l-0.5,3.5c-0.5-0.1-0.9-0.2-1.4-0.2
				c-0.5-0.1-0.9-0.1-1.4-0.1c-1,0-1.8,0.2-2.4,0.6c-0.6,0.4-1,0.9-1.3,1.6v8.2h-3.5V18.5h3.3l0.2,2.2c0.6-0.8,1.2-1.4,2-1.8
				C132.8,18.5,133.6,18.2,134.6,18.2z"/>
			<path class="st2" d="M152.5,25.4c0,1-0.1,1.9-0.3,2.8c-0.2,0.8-0.6,1.6-1,2.2c-0.4,0.6-1,1.1-1.7,1.4c-0.7,0.3-1.4,0.5-2.3,0.5
				c-0.8,0-1.5-0.1-2.1-0.4c-0.6-0.3-1.1-0.7-1.5-1.3l-0.2,1.4h-3.1V12.8h3.5v6.9c0.4-0.5,0.9-0.8,1.4-1.1c0.5-0.3,1.2-0.4,1.9-0.4
				c0.9,0,1.7,0.2,2.3,0.5c0.7,0.3,1.2,0.8,1.7,1.4c0.4,0.6,0.8,1.3,1,2.2c0.2,0.9,0.3,1.8,0.3,2.8V25.4z M149,25.2
				c0-0.6,0-1.1-0.1-1.6c-0.1-0.5-0.2-0.9-0.4-1.3c-0.2-0.4-0.5-0.7-0.8-0.9c-0.4-0.2-0.8-0.3-1.3-0.3c-0.6,0-1.2,0.1-1.6,0.4
				c-0.4,0.3-0.7,0.6-0.9,1.1V28c0.2,0.5,0.5,0.8,0.9,1.1c0.4,0.3,0.9,0.4,1.6,0.4c0.5,0,1-0.1,1.3-0.3c0.3-0.2,0.6-0.5,0.8-0.9
				c0.2-0.4,0.4-0.8,0.4-1.3c0.1-0.5,0.1-1,0.1-1.6V25.2z"/>
			<path class="st2" d="M156.6,18.5h7.4v10.8h3.7v2.8h-11.1v-2.8h3.9v-7.9h-3.9V18.5z M160.3,15c0-0.3,0-0.5,0.1-0.7
				c0.1-0.2,0.2-0.4,0.4-0.6c0.2-0.2,0.4-0.3,0.6-0.4c0.2-0.1,0.5-0.1,0.8-0.1c0.6,0,1.1,0.2,1.5,0.5c0.4,0.3,0.5,0.8,0.5,1.3
				c0,0.5-0.2,1-0.5,1.3c-0.4,0.3-0.9,0.5-1.5,0.5c-0.3,0-0.6,0-0.8-0.1c-0.2-0.1-0.5-0.2-0.6-0.4c-0.2-0.2-0.3-0.4-0.4-0.6
				C160.3,15.5,160.3,15.3,160.3,15z"/>
			<path class="st2" d="M177.6,15.1v3.3h5.1v2.6h-5.1v5.9c0,0.5,0.1,0.9,0.2,1.2c0.1,0.3,0.3,0.6,0.5,0.8c0.2,0.2,0.5,0.3,0.8,0.4
				c0.3,0.1,0.6,0.1,1,0.1c0.3,0,0.5,0,0.8,0c0.3,0,0.5-0.1,0.8-0.1c0.3,0,0.5-0.1,0.7-0.1c0.2,0,0.4-0.1,0.6-0.1l0.3,2.4
				c-0.2,0.1-0.5,0.3-0.9,0.4c-0.3,0.1-0.7,0.2-1,0.3c-0.4,0.1-0.8,0.1-1.2,0.2c-0.4,0-0.8,0.1-1.2,0.1c-0.7,0-1.4-0.1-2-0.3
				c-0.6-0.2-1.1-0.5-1.6-0.9c-0.4-0.4-0.8-0.9-1-1.6c-0.2-0.6-0.4-1.4-0.4-2.3v-6.2H171v-2.6h3.1v-3.3H177.6z"/>
		</g>
	</g>
</g>
<g>
	<g>
		<path class="st0" d="M-65.9-62.1c0,5.3,4.3,9.6,9.6,9.6v9.6c-10.6,0-19.2-8.6-19.2-19.2s8.6-19.2,19.2-19.2v9.6
			C-61.6-71.7-65.9-67.4-65.9-62.1z"/>
		<path class="st1" d="M-46.7-71.7c0-5.3-4.3-9.6-9.6-9.6v-9.6c10.6,0,19.2,8.6,19.2,19.2s-8.6,19.2-19.2,19.2v-9.6
			C-51-62.1-46.7-66.4-46.7-71.7z"/>
		<path class="st2" d="M-56.3-81.3v9.6c-3.6,0-6.7,1.9-8.3,4.8c-0.8,1.4-1.3,3.1-1.3,4.8c0,5.3,4.3,9.6,9.6,9.6v-9.6
			c3.6,0,6.7-1.9,8.3-4.8c0.8-1.4,1.3-3.1,1.3-4.8C-46.7-77-51-81.3-56.3-81.3z"/>
	</g>
	<g>
		<g>
			<path class="st2" d="M-21.9-59.9c0.5,0,1-0.1,1.4-0.2c0.5-0.1,0.9-0.4,1.2-0.6s0.6-0.6,0.9-1c0.2-0.4,0.4-0.8,0.4-1.3h1.4
				c0,0.6-0.2,1.2-0.5,1.8c-0.3,0.5-0.7,1-1.2,1.4c-0.5,0.4-1,0.7-1.7,0.9c-0.6,0.2-1.3,0.3-2,0.3c-1,0-1.9-0.2-2.6-0.6
				c-0.7-0.4-1.4-0.9-1.8-1.5c-0.5-0.6-0.9-1.4-1.1-2.2c-0.2-0.8-0.4-1.7-0.4-2.5V-66c0-0.9,0.1-1.7,0.4-2.5
				c0.2-0.8,0.6-1.5,1.1-2.2c0.5-0.6,1.1-1.1,1.8-1.5c0.7-0.4,1.6-0.6,2.6-0.6c0.8,0,1.5,0.1,2.1,0.4c0.6,0.2,1.2,0.6,1.7,1
				c0.5,0.4,0.8,0.9,1.1,1.5c0.3,0.6,0.4,1.2,0.5,1.9H-18c0-0.5-0.1-1-0.4-1.4c-0.2-0.4-0.5-0.8-0.8-1.1c-0.3-0.3-0.7-0.6-1.2-0.7
				c-0.5-0.2-1-0.3-1.5-0.3c-0.8,0-1.5,0.2-2,0.5c-0.6,0.3-1,0.7-1.4,1.3c-0.4,0.5-0.6,1.1-0.8,1.8c-0.2,0.7-0.2,1.3-0.2,2v0.5
				c0,0.7,0.1,1.4,0.2,2c0.2,0.7,0.4,1.3,0.8,1.8c0.4,0.5,0.8,0.9,1.4,1.3C-23.3-60.1-22.7-59.9-21.9-59.9z"/>
			<path class="st2" d="M-12.7-65.9c0-0.9,0.2-1.8,0.4-2.6c0.3-0.8,0.7-1.6,1.2-2.2c0.5-0.6,1.1-1.1,1.9-1.5
				c0.8-0.4,1.6-0.6,2.5-0.6c1,0,1.8,0.2,2.6,0.6c0.8,0.4,1.4,0.9,1.9,1.5c0.5,0.6,0.9,1.4,1.2,2.2c0.3,0.8,0.4,1.7,0.4,2.6v0.4
				c0,0.9-0.1,1.8-0.4,2.6c-0.3,0.8-0.7,1.6-1.2,2.2c-0.5,0.6-1.2,1.1-1.9,1.5c-0.7,0.4-1.6,0.5-2.6,0.5s-1.8-0.2-2.6-0.5
				c-0.8-0.4-1.4-0.9-1.9-1.5c-0.5-0.6-0.9-1.4-1.2-2.2c-0.3-0.8-0.4-1.7-0.4-2.6V-65.9z M-11.2-65.5c0,0.7,0.1,1.4,0.3,2.1
				c0.2,0.7,0.5,1.3,0.9,1.8c0.4,0.5,0.9,0.9,1.4,1.2c0.6,0.3,1.2,0.5,2,0.5c0.7,0,1.4-0.2,2-0.5c0.6-0.3,1-0.7,1.4-1.2
				c0.4-0.5,0.7-1.1,0.9-1.8c0.2-0.7,0.3-1.4,0.3-2.1v-0.4c0-0.7-0.1-1.4-0.3-2.1c-0.2-0.7-0.5-1.3-0.9-1.8
				c-0.4-0.5-0.9-0.9-1.4-1.2c-0.6-0.3-1.2-0.5-2-0.5c-0.7,0-1.4,0.2-2,0.5c-0.6,0.3-1,0.7-1.4,1.2c-0.4,0.5-0.7,1.1-0.9,1.8
				c-0.2,0.7-0.3,1.4-0.3,2.1V-65.5z"/>
			<path class="st2" d="M3.1-65.8c0-0.9,0.1-1.8,0.3-2.6c0.2-0.8,0.6-1.6,1-2.2c0.4-0.6,1-1.2,1.7-1.5c0.7-0.4,1.5-0.6,2.4-0.6
				c0.9,0,1.6,0.2,2.3,0.6c0.7,0.4,1.3,0.9,1.7,1.5v-7.6H14v19.3h-1.4l-0.1-1.8c-0.5,0.7-1.1,1.2-1.8,1.5c-0.7,0.3-1.5,0.5-2.3,0.5
				c-0.9,0-1.7-0.2-2.4-0.6c-0.7-0.4-1.2-0.9-1.7-1.5c-0.4-0.6-0.8-1.4-1-2.2c-0.2-0.8-0.3-1.7-0.3-2.6V-65.8z M4.6-65.6
				c0,0.7,0.1,1.4,0.2,2c0.1,0.7,0.4,1.3,0.7,1.8c0.3,0.5,0.8,1,1.3,1.3C7.4-60.1,8-60,8.8-60c0.4,0,0.8-0.1,1.2-0.2
				c0.4-0.1,0.7-0.3,1.1-0.5c0.3-0.2,0.6-0.5,0.9-0.7c0.3-0.3,0.5-0.6,0.6-1v-6.6c-0.2-0.4-0.4-0.7-0.6-1c-0.2-0.3-0.5-0.6-0.8-0.8
				c-0.3-0.2-0.7-0.4-1.1-0.5c-0.4-0.1-0.8-0.2-1.2-0.2c-0.8,0-1.4,0.2-2,0.5c-0.5,0.3-1,0.8-1.3,1.3c-0.3,0.5-0.6,1.1-0.7,1.8
				c-0.1,0.7-0.2,1.3-0.2,2V-65.6z"/>
			<path class="st2" d="M24.8-58.7c-0.9,0-1.8-0.2-2.6-0.5c-0.8-0.4-1.4-0.8-2-1.4c-0.6-0.6-1-1.3-1.3-2.1c-0.3-0.8-0.5-1.7-0.5-2.6
				v-0.5c0-1,0.2-1.9,0.5-2.7c0.3-0.8,0.7-1.6,1.3-2.2c0.5-0.6,1.2-1.1,1.9-1.5c0.7-0.4,1.5-0.5,2.4-0.5c0.9,0,1.7,0.2,2.4,0.5
				c0.7,0.3,1.3,0.8,1.8,1.3c0.5,0.6,0.8,1.2,1.1,2c0.2,0.8,0.4,1.6,0.4,2.4v0.9H20v0.3c0,0.7,0.1,1.4,0.4,2c0.2,0.7,0.6,1.2,1,1.7
				c0.4,0.5,0.9,0.9,1.5,1.2c0.6,0.3,1.3,0.4,2,0.4c0.8,0,1.6-0.1,2.3-0.5c0.7-0.3,1.3-0.8,1.7-1.4l1,0.7c-0.3,0.4-0.5,0.7-0.9,1
				c-0.3,0.3-0.7,0.6-1.2,0.8c-0.4,0.2-0.9,0.4-1.4,0.5C25.9-58.7,25.4-58.7,24.8-58.7z M24.5-71.5c-0.6,0-1.2,0.1-1.7,0.3
				c-0.5,0.2-1,0.6-1.3,1c-0.4,0.4-0.7,0.9-1,1.5c-0.3,0.6-0.4,1.2-0.5,1.8h8.6v-0.2c0-0.6-0.1-1.1-0.3-1.6c-0.2-0.5-0.5-1-0.8-1.4
				c-0.3-0.4-0.8-0.7-1.3-1C25.7-71.4,25.2-71.5,24.5-71.5z"/>
			<path class="st2" d="M33.3-65.8c0-1,0.1-1.9,0.4-2.7c0.3-0.8,0.7-1.6,1.3-2.2c0.5-0.6,1.2-1.1,2-1.5c0.8-0.4,1.7-0.5,2.7-0.5
				c1,0,1.9,0.2,2.7,0.5c0.8,0.4,1.5,0.8,2,1.5c0.5,0.6,1,1.4,1.3,2.2c0.3,0.8,0.4,1.8,0.4,2.7v0.3c0,1-0.1,1.9-0.4,2.8
				c-0.3,0.8-0.7,1.6-1.2,2.2c-0.5,0.6-1.2,1.1-2,1.5c-0.8,0.3-1.7,0.5-2.7,0.5c-1,0-1.9-0.2-2.7-0.5c-0.8-0.3-1.5-0.8-2-1.5
				c-0.5-0.6-1-1.4-1.3-2.2c-0.3-0.8-0.4-1.8-0.4-2.8V-65.8z M36.8-65.6c0,0.6,0.1,1.1,0.2,1.6c0.1,0.5,0.3,0.9,0.5,1.3
				c0.2,0.4,0.5,0.7,0.9,0.9c0.4,0.2,0.8,0.3,1.4,0.3c0.5,0,1-0.1,1.3-0.3c0.4-0.2,0.7-0.5,0.9-0.9c0.2-0.4,0.4-0.8,0.5-1.3
				c0.1-0.5,0.2-1,0.2-1.6v-0.3c0-0.6-0.1-1.1-0.2-1.6c-0.1-0.5-0.3-0.9-0.5-1.3c-0.2-0.4-0.5-0.7-0.9-0.9c-0.4-0.2-0.8-0.3-1.3-0.3
				c-0.5,0-1,0.1-1.3,0.3c-0.4,0.2-0.7,0.5-0.9,0.9c-0.2,0.4-0.4,0.8-0.5,1.3c-0.1,0.5-0.2,1-0.2,1.6V-65.6z"/>
			<path class="st2" d="M59.1-72.8c0.5,0,1,0,1.5,0.1c0.4,0.1,0.8,0.1,1.1,0.2l-0.5,3.5c-0.5-0.1-0.9-0.2-1.4-0.2
				c-0.5-0.1-0.9-0.1-1.4-0.1c-1,0-1.8,0.2-2.4,0.6c-0.6,0.4-1,0.9-1.3,1.6v8.2h-3.5v-13.6h3.3l0.2,2.2c0.6-0.8,1.2-1.4,2-1.8
				C57.3-72.5,58.1-72.8,59.1-72.8z"/>
			<path class="st2" d="M77-65.6c0,1-0.1,1.9-0.3,2.8c-0.2,0.8-0.6,1.6-1,2.2c-0.4,0.6-1,1.1-1.7,1.4c-0.7,0.3-1.4,0.5-2.3,0.5
				c-0.8,0-1.5-0.1-2.1-0.4c-0.6-0.3-1.1-0.7-1.5-1.3L68-58.9h-3.1v-19.3h3.5v6.9c0.4-0.5,0.9-0.8,1.4-1.1c0.5-0.3,1.2-0.4,1.9-0.4
				c0.9,0,1.7,0.2,2.3,0.5c0.7,0.3,1.2,0.8,1.7,1.4c0.4,0.6,0.8,1.3,1,2.2c0.2,0.9,0.3,1.8,0.3,2.8V-65.6z M73.5-65.8
				c0-0.6,0-1.1-0.1-1.6c-0.1-0.5-0.2-0.9-0.4-1.3c-0.2-0.4-0.5-0.7-0.8-0.9c-0.4-0.2-0.8-0.3-1.3-0.3c-0.6,0-1.2,0.1-1.6,0.4
				c-0.4,0.3-0.7,0.6-0.9,1.1v5.4c0.2,0.5,0.5,0.8,0.9,1.1c0.4,0.3,0.9,0.4,1.6,0.4c0.5,0,1-0.1,1.3-0.3c0.3-0.2,0.6-0.5,0.8-0.9
				c0.2-0.4,0.4-0.8,0.4-1.3c0.1-0.5,0.1-1,0.1-1.6V-65.8z"/>
			<path class="st2" d="M81.1-72.5h7.4v10.8h3.7v2.8H81.1v-2.8H85v-7.9h-3.9V-72.5z M84.8-76c0-0.3,0-0.5,0.1-0.7
				c0.1-0.2,0.2-0.4,0.4-0.6c0.2-0.2,0.4-0.3,0.6-0.4c0.2-0.1,0.5-0.1,0.8-0.1c0.6,0,1.1,0.2,1.5,0.5c0.4,0.3,0.5,0.8,0.5,1.3
				c0,0.5-0.2,1-0.5,1.3c-0.4,0.3-0.9,0.5-1.5,0.5c-0.3,0-0.6,0-0.8-0.1c-0.2-0.1-0.5-0.2-0.6-0.4c-0.2-0.2-0.3-0.4-0.4-0.6
				C84.8-75.5,84.8-75.7,84.8-76z"/>
			<path class="st2" d="M102.1-75.9v3.3h5.1v2.6h-5.1v5.9c0,0.5,0.1,0.9,0.2,1.2c0.1,0.3,0.3,0.6,0.5,0.8c0.2,0.2,0.5,0.3,0.8,0.4
				c0.3,0.1,0.6,0.1,1,0.1c0.3,0,0.5,0,0.8,0c0.3,0,0.5-0.1,0.8-0.1c0.3,0,0.5-0.1,0.7-0.1c0.2,0,0.4-0.1,0.6-0.1l0.3,2.4
				c-0.2,0.1-0.5,0.3-0.9,0.4c-0.3,0.1-0.7,0.2-1,0.3c-0.4,0.1-0.8,0.1-1.2,0.2c-0.4,0-0.8,0.1-1.2,0.1c-0.7,0-1.4-0.1-2-0.3
				c-0.6-0.2-1.1-0.5-1.6-0.9c-0.4-0.4-0.8-0.9-1-1.6c-0.2-0.6-0.4-1.4-0.4-2.3v-6.2h-3.1v-2.6h3.1v-3.3H102.1z"/>
		</g>
	</g>
</g>
<g>
	<g>
		<path class="st0" d="M235.1,20.9c0,5.3,4.3,9.6,9.6,9.6v9.6c-10.6,0-19.2-8.6-19.2-19.2s8.6-19.2,19.2-19.2v9.6
			C239.4,11.3,235.1,15.6,235.1,20.9z"/>
		<path class="st1" d="M254.3,11.3c0-5.3-4.3-9.6-9.6-9.6v-9.6c10.6,0,19.2,8.6,19.2,19.2s-8.6,19.2-19.2,19.2v-9.6
			C250,20.9,254.3,16.6,254.3,11.3z"/>
		<path class="st2" d="M244.7,1.7v9.6c-3.6,0-6.7,1.9-8.3,4.8c-0.8,1.4-1.3,3.1-1.3,4.8c0,5.3,4.3,9.6,9.6,9.6v-9.6
			c3.6,0,6.7-1.9,8.3-4.8c0.8-1.4,1.3-3.1,1.3-4.8C254.3,6,250,1.7,244.7,1.7z"/>
	</g>
	<g>
		<g>
			<path class="st2" d="M279.1,23.1c0.5,0,1-0.1,1.4-0.2c0.5-0.1,0.9-0.4,1.2-0.6s0.6-0.6,0.9-1c0.2-0.4,0.4-0.8,0.4-1.3h1.4
				c0,0.6-0.2,1.2-0.5,1.8c-0.3,0.5-0.7,1-1.2,1.4c-0.5,0.4-1,0.7-1.7,0.9c-0.6,0.2-1.3,0.3-2,0.3c-1,0-1.9-0.2-2.6-0.6
				c-0.7-0.4-1.4-0.9-1.8-1.5c-0.5-0.6-0.9-1.4-1.1-2.2c-0.2-0.8-0.4-1.7-0.4-2.5V17c0-0.9,0.1-1.7,0.4-2.5c0.2-0.8,0.6-1.5,1.1-2.2
				c0.5-0.6,1.1-1.1,1.8-1.5c0.7-0.4,1.6-0.6,2.6-0.6c0.8,0,1.5,0.1,2.1,0.4c0.6,0.2,1.2,0.6,1.7,1c0.5,0.4,0.8,0.9,1.1,1.5
				c0.3,0.6,0.4,1.2,0.5,1.9H283c0-0.5-0.1-1-0.4-1.4c-0.2-0.4-0.5-0.8-0.8-1.1c-0.3-0.3-0.7-0.6-1.2-0.7c-0.5-0.2-1-0.3-1.5-0.3
				c-0.8,0-1.5,0.2-2,0.5c-0.6,0.3-1,0.7-1.4,1.3c-0.4,0.5-0.6,1.1-0.8,1.8c-0.2,0.7-0.2,1.3-0.2,2v0.5c0,0.7,0.1,1.4,0.2,2
				c0.2,0.7,0.4,1.3,0.8,1.8c0.4,0.5,0.8,0.9,1.4,1.3C277.7,22.9,278.3,23.1,279.1,23.1z"/>
			<path class="st2" d="M288.3,17.1c0-0.9,0.2-1.8,0.4-2.6c0.3-0.8,0.7-1.6,1.2-2.2c0.5-0.6,1.1-1.1,1.9-1.5
				c0.8-0.4,1.6-0.6,2.5-0.6c1,0,1.8,0.2,2.6,0.6c0.8,0.4,1.4,0.9,1.9,1.5c0.5,0.6,0.9,1.4,1.2,2.2c0.3,0.8,0.4,1.7,0.4,2.6v0.4
				c0,0.9-0.1,1.8-0.4,2.6c-0.3,0.8-0.7,1.6-1.2,2.2c-0.5,0.6-1.2,1.1-1.9,1.5c-0.7,0.4-1.6,0.5-2.6,0.5s-1.8-0.2-2.6-0.5
				c-0.8-0.4-1.4-0.9-1.9-1.5c-0.5-0.6-0.9-1.4-1.2-2.2c-0.3-0.8-0.4-1.7-0.4-2.6V17.1z M289.8,17.5c0,0.7,0.1,1.4,0.3,2.1
				c0.2,0.7,0.5,1.3,0.9,1.8c0.4,0.5,0.9,0.9,1.4,1.2c0.6,0.3,1.2,0.5,2,0.5c0.7,0,1.4-0.2,2-0.5c0.6-0.3,1-0.7,1.4-1.2
				c0.4-0.5,0.7-1.1,0.9-1.8c0.2-0.7,0.3-1.4,0.3-2.1v-0.4c0-0.7-0.1-1.4-0.3-2.1c-0.2-0.7-0.5-1.3-0.9-1.8
				c-0.4-0.5-0.9-0.9-1.4-1.2c-0.6-0.3-1.2-0.5-2-0.5c-0.7,0-1.4,0.2-2,0.5c-0.6,0.3-1,0.7-1.4,1.2c-0.4,0.5-0.7,1.1-0.9,1.8
				c-0.2,0.7-0.3,1.4-0.3,2.1V17.5z"/>
			<path class="st2" d="M304.1,17.2c0-0.9,0.1-1.8,0.3-2.6c0.2-0.8,0.6-1.6,1-2.2c0.4-0.6,1-1.2,1.7-1.5c0.7-0.4,1.5-0.6,2.4-0.6
				c0.9,0,1.6,0.2,2.3,0.6c0.7,0.4,1.3,0.9,1.7,1.5V4.8h1.5v19.3h-1.4l-0.1-1.8c-0.5,0.7-1.1,1.2-1.8,1.5c-0.7,0.3-1.5,0.5-2.3,0.5
				c-0.9,0-1.7-0.2-2.4-0.6c-0.7-0.4-1.2-0.9-1.7-1.5c-0.4-0.6-0.8-1.4-1-2.2c-0.2-0.8-0.3-1.7-0.3-2.6V17.2z M305.6,17.4
				c0,0.7,0.1,1.4,0.2,2c0.1,0.7,0.4,1.3,0.7,1.8c0.3,0.5,0.8,1,1.3,1.3c0.5,0.3,1.2,0.5,1.9,0.5c0.4,0,0.8-0.1,1.2-0.2
				c0.4-0.1,0.7-0.3,1.1-0.5c0.3-0.2,0.6-0.5,0.9-0.7c0.3-0.3,0.5-0.6,0.6-1v-6.6c-0.2-0.4-0.4-0.7-0.6-1c-0.2-0.3-0.5-0.6-0.8-0.8
				c-0.3-0.2-0.7-0.4-1.1-0.5c-0.4-0.1-0.8-0.2-1.2-0.2c-0.8,0-1.4,0.2-2,0.5c-0.5,0.3-1,0.8-1.3,1.3c-0.3,0.5-0.6,1.1-0.7,1.8
				c-0.1,0.7-0.2,1.3-0.2,2V17.4z"/>
			<path class="st2" d="M325.8,24.3c-0.9,0-1.8-0.2-2.6-0.5c-0.8-0.4-1.4-0.8-2-1.4c-0.6-0.6-1-1.3-1.3-2.1
				c-0.3-0.8-0.5-1.7-0.5-2.6v-0.5c0-1,0.2-1.9,0.5-2.7c0.3-0.8,0.7-1.6,1.3-2.2c0.5-0.6,1.2-1.1,1.9-1.5c0.7-0.4,1.5-0.5,2.4-0.5
				c0.9,0,1.7,0.2,2.4,0.5c0.7,0.3,1.3,0.8,1.8,1.3c0.5,0.6,0.8,1.2,1.1,2c0.2,0.8,0.4,1.6,0.4,2.4v0.9H321v0.3c0,0.7,0.1,1.4,0.4,2
				c0.2,0.7,0.6,1.2,1,1.7c0.4,0.5,0.9,0.9,1.5,1.2c0.6,0.3,1.3,0.4,2,0.4c0.8,0,1.6-0.1,2.3-0.5c0.7-0.3,1.3-0.8,1.7-1.4l1,0.7
				c-0.3,0.4-0.5,0.7-0.9,1c-0.3,0.3-0.7,0.6-1.2,0.8c-0.4,0.2-0.9,0.4-1.4,0.5C326.9,24.3,326.4,24.3,325.8,24.3z M325.5,11.5
				c-0.6,0-1.2,0.1-1.7,0.3c-0.5,0.2-1,0.6-1.3,1c-0.4,0.4-0.7,0.9-1,1.5c-0.3,0.6-0.4,1.2-0.5,1.8h8.6v-0.2c0-0.6-0.1-1.1-0.3-1.6
				c-0.2-0.5-0.5-1-0.8-1.4c-0.3-0.4-0.8-0.7-1.3-1C326.7,11.6,326.2,11.5,325.5,11.5z"/>
			<path class="st2" d="M334.3,17.2c0-1,0.1-1.9,0.4-2.7c0.3-0.8,0.7-1.6,1.3-2.2c0.5-0.6,1.2-1.1,2-1.5c0.8-0.4,1.7-0.5,2.7-0.5
				c1,0,1.9,0.2,2.7,0.5c0.8,0.4,1.5,0.8,2,1.5c0.5,0.6,1,1.4,1.3,2.2c0.3,0.8,0.4,1.8,0.4,2.7v0.3c0,1-0.1,1.9-0.4,2.8
				c-0.3,0.8-0.7,1.6-1.2,2.2c-0.5,0.6-1.2,1.1-2,1.5c-0.8,0.3-1.7,0.5-2.7,0.5c-1,0-1.9-0.2-2.7-0.5c-0.8-0.3-1.5-0.8-2-1.5
				c-0.5-0.6-1-1.4-1.3-2.2c-0.3-0.8-0.4-1.8-0.4-2.8V17.2z M337.8,17.4c0,0.6,0.1,1.1,0.2,1.6c0.1,0.5,0.3,0.9,0.5,1.3
				c0.2,0.4,0.5,0.7,0.9,0.9c0.4,0.2,0.8,0.3,1.4,0.3c0.5,0,1-0.1,1.3-0.3c0.4-0.2,0.7-0.5,0.9-0.9c0.2-0.4,0.4-0.8,0.5-1.3
				c0.1-0.5,0.2-1,0.2-1.6v-0.3c0-0.6-0.1-1.1-0.2-1.6c-0.1-0.5-0.3-0.9-0.5-1.3c-0.2-0.4-0.5-0.7-0.9-0.9c-0.4-0.2-0.8-0.3-1.3-0.3
				c-0.5,0-1,0.1-1.3,0.3c-0.4,0.2-0.7,0.5-0.9,0.9c-0.2,0.4-0.4,0.8-0.5,1.3c-0.1,0.5-0.2,1-0.2,1.6V17.4z"/>
			<path class="st2" d="M360.1,10.2c0.5,0,1,0,1.5,0.1c0.4,0.1,0.8,0.1,1.1,0.2l-0.5,3.5c-0.5-0.1-0.9-0.2-1.4-0.2
				c-0.5-0.1-0.9-0.1-1.4-0.1c-1,0-1.8,0.2-2.4,0.6c-0.6,0.4-1,0.9-1.3,1.6v8.2h-3.5V10.5h3.3l0.2,2.2c0.6-0.8,1.2-1.4,2-1.8
				C358.3,10.5,359.1,10.2,360.1,10.2z"/>
			<path class="st2" d="M378,17.4c0,1-0.1,1.9-0.3,2.8c-0.2,0.8-0.6,1.6-1,2.2c-0.4,0.6-1,1.1-1.7,1.4c-0.7,0.3-1.4,0.5-2.3,0.5
				c-0.8,0-1.5-0.1-2.1-0.4c-0.6-0.3-1.1-0.7-1.5-1.3l-0.2,1.4h-3.1V4.8h3.5v6.9c0.4-0.5,0.9-0.8,1.4-1.1c0.5-0.3,1.2-0.4,1.9-0.4
				c0.9,0,1.7,0.2,2.3,0.5c0.7,0.3,1.2,0.8,1.7,1.4c0.4,0.6,0.8,1.3,1,2.2c0.2,0.9,0.3,1.8,0.3,2.8V17.4z M374.5,17.2
				c0-0.6,0-1.1-0.1-1.6c-0.1-0.5-0.2-0.9-0.4-1.3c-0.2-0.4-0.5-0.7-0.8-0.9c-0.4-0.2-0.8-0.3-1.3-0.3c-0.6,0-1.2,0.1-1.6,0.4
				c-0.4,0.3-0.7,0.6-0.9,1.1V20c0.2,0.5,0.5,0.8,0.9,1.1c0.4,0.3,0.9,0.4,1.6,0.4c0.5,0,1-0.1,1.3-0.3c0.3-0.2,0.6-0.5,0.8-0.9
				c0.2-0.4,0.4-0.8,0.4-1.3c0.1-0.5,0.1-1,0.1-1.6V17.2z"/>
			<path class="st2" d="M382.1,10.5h7.4v10.8h3.7v2.8h-11.1v-2.8h3.9v-7.9h-3.9V10.5z M385.8,7c0-0.3,0-0.5,0.1-0.7
				c0.1-0.2,0.2-0.4,0.4-0.6c0.2-0.2,0.4-0.3,0.6-0.4c0.2-0.1,0.5-0.1,0.8-0.1c0.6,0,1.1,0.2,1.5,0.5c0.4,0.3,0.5,0.8,0.5,1.3
				c0,0.5-0.2,1-0.5,1.3c-0.4,0.3-0.9,0.5-1.5,0.5c-0.3,0-0.6,0-0.8-0.1c-0.2-0.1-0.5-0.2-0.6-0.4c-0.2-0.2-0.3-0.4-0.4-0.6
				C385.8,7.5,385.8,7.3,385.8,7z"/>
			<path class="st2" d="M403.1,7.1v3.3h5.1v2.6h-5.1v5.9c0,0.5,0.1,0.9,0.2,1.2c0.1,0.3,0.3,0.6,0.5,0.8c0.2,0.2,0.5,0.3,0.8,0.4
				c0.3,0.1,0.6,0.1,1,0.1c0.3,0,0.5,0,0.8,0c0.3,0,0.5-0.1,0.8-0.1c0.3,0,0.5-0.1,0.7-0.1c0.2,0,0.4-0.1,0.6-0.1l0.3,2.4
				c-0.2,0.1-0.5,0.3-0.9,0.4c-0.3,0.1-0.7,0.2-1,0.3c-0.4,0.1-0.8,0.1-1.2,0.2c-0.4,0-0.8,0.1-1.2,0.1c-0.7,0-1.4-0.1-2-0.3
				c-0.6-0.2-1.1-0.5-1.6-0.9c-0.4-0.4-0.8-0.9-1-1.6c-0.2-0.6-0.4-1.4-0.4-2.3v-6.2h-3.1v-2.6h3.1V7.1H403.1z"/>
		</g>
	</g>
</g>
<g>
	<g>
		<path class="st0" d="M143.5-104.3c0,5.3,4.3,9.6,9.6,9.6v9.6c-10.6,0-19.2-8.6-19.2-19.2s8.6-19.2,19.2-19.2v9.6
			C147.8-113.9,143.5-109.6,143.5-104.3z"/>
		<path class="st1" d="M162.7-113.9c0-5.3-4.3-9.6-9.6-9.6v-9.6c10.6,0,19.2,8.6,19.2,19.2s-8.6,19.2-19.2,19.2v-9.6
			C158.4-104.3,162.7-108.6,162.7-113.9z"/>
		<path class="st2" d="M153.1-123.5v9.6c-3.6,0-6.7,1.9-8.3,4.8c-0.8,1.4-1.3,3.1-1.3,4.8c0,5.3,4.3,9.6,9.6,9.6v-9.6
			c3.6,0,6.7-1.9,8.3-4.8c0.8-1.4,1.3-3.1,1.3-4.8C162.7-119.2,158.4-123.5,153.1-123.5z"/>
	</g>
	<g>
		<g>
			<path class="st2" d="M187.5-102.1c0.5,0,1-0.1,1.4-0.2c0.5-0.1,0.9-0.4,1.2-0.6s0.6-0.6,0.9-1c0.2-0.4,0.4-0.8,0.4-1.3h1.4
				c0,0.6-0.2,1.2-0.5,1.8c-0.3,0.5-0.7,1-1.2,1.4c-0.5,0.4-1,0.7-1.7,0.9c-0.6,0.2-1.3,0.3-2,0.3c-1,0-1.9-0.2-2.6-0.6
				c-0.7-0.4-1.4-0.9-1.8-1.5c-0.5-0.6-0.9-1.4-1.1-2.2c-0.2-0.8-0.4-1.7-0.4-2.5v-0.5c0-0.9,0.1-1.7,0.4-2.5
				c0.2-0.8,0.6-1.5,1.1-2.2c0.5-0.6,1.1-1.1,1.8-1.5c0.7-0.4,1.6-0.6,2.6-0.6c0.8,0,1.5,0.1,2.1,0.4c0.6,0.2,1.2,0.6,1.7,1
				c0.5,0.4,0.8,0.9,1.1,1.5c0.3,0.6,0.4,1.2,0.5,1.9h-1.4c0-0.5-0.1-1-0.4-1.4c-0.2-0.4-0.5-0.8-0.8-1.1c-0.3-0.3-0.7-0.6-1.2-0.7
				c-0.5-0.2-1-0.3-1.5-0.3c-0.8,0-1.5,0.2-2,0.5c-0.6,0.3-1,0.7-1.4,1.3c-0.4,0.5-0.6,1.1-0.8,1.8c-0.2,0.7-0.2,1.3-0.2,2v0.5
				c0,0.7,0.1,1.4,0.2,2c0.2,0.7,0.4,1.3,0.8,1.8c0.4,0.5,0.8,0.9,1.4,1.3C186-102.3,186.7-102.1,187.5-102.1z"/>
			<path class="st2" d="M196.7-108.1c0-0.9,0.2-1.8,0.4-2.6c0.3-0.8,0.7-1.6,1.2-2.2c0.5-0.6,1.1-1.1,1.9-1.5
				c0.8-0.4,1.6-0.6,2.5-0.6c1,0,1.8,0.2,2.6,0.6c0.8,0.4,1.4,0.9,1.9,1.5c0.5,0.6,0.9,1.4,1.2,2.2c0.3,0.8,0.4,1.7,0.4,2.6v0.4
				c0,0.9-0.1,1.8-0.4,2.6c-0.3,0.8-0.7,1.6-1.2,2.2c-0.5,0.6-1.2,1.1-1.9,1.5c-0.7,0.4-1.6,0.5-2.6,0.5c-1,0-1.8-0.2-2.6-0.5
				c-0.8-0.4-1.4-0.9-1.9-1.5c-0.5-0.6-0.9-1.4-1.2-2.2c-0.3-0.8-0.4-1.7-0.4-2.6V-108.1z M198.2-107.7c0,0.7,0.1,1.4,0.3,2.1
				c0.2,0.7,0.5,1.3,0.9,1.8c0.4,0.5,0.9,0.9,1.4,1.2c0.6,0.3,1.2,0.5,2,0.5c0.7,0,1.4-0.2,2-0.5c0.6-0.3,1-0.7,1.4-1.2
				c0.4-0.5,0.7-1.1,0.9-1.8c0.2-0.7,0.3-1.4,0.3-2.1v-0.4c0-0.7-0.1-1.4-0.3-2.1c-0.2-0.7-0.5-1.3-0.9-1.8
				c-0.4-0.5-0.9-0.9-1.4-1.2c-0.6-0.3-1.2-0.5-2-0.5c-0.7,0-1.4,0.2-2,0.5c-0.6,0.3-1,0.7-1.4,1.2c-0.4,0.5-0.7,1.1-0.9,1.8
				c-0.2,0.7-0.3,1.4-0.3,2.1V-107.7z"/>
			<path class="st2" d="M212.5-108c0-0.9,0.1-1.8,0.3-2.6c0.2-0.8,0.6-1.6,1-2.2c0.4-0.6,1-1.2,1.7-1.5c0.7-0.4,1.5-0.6,2.4-0.6
				c0.9,0,1.6,0.2,2.3,0.6c0.7,0.4,1.3,0.9,1.7,1.5v-7.6h1.5v19.3H222l-0.1-1.8c-0.5,0.7-1.1,1.2-1.8,1.5c-0.7,0.3-1.5,0.5-2.3,0.5
				c-0.9,0-1.7-0.2-2.4-0.6c-0.7-0.4-1.2-0.9-1.7-1.5c-0.4-0.6-0.8-1.4-1-2.2c-0.2-0.8-0.3-1.7-0.3-2.6V-108z M214-107.8
				c0,0.7,0.1,1.4,0.2,2c0.1,0.7,0.4,1.3,0.7,1.8c0.3,0.5,0.8,1,1.3,1.3c0.5,0.3,1.2,0.5,1.9,0.5c0.4,0,0.8-0.1,1.2-0.2
				c0.4-0.1,0.7-0.3,1.1-0.5c0.3-0.2,0.6-0.5,0.9-0.7c0.3-0.3,0.5-0.6,0.6-1v-6.6c-0.2-0.4-0.4-0.7-0.6-1c-0.2-0.3-0.5-0.6-0.8-0.8
				c-0.3-0.2-0.7-0.4-1.1-0.5c-0.4-0.1-0.8-0.2-1.2-0.2c-0.8,0-1.4,0.2-2,0.5c-0.5,0.3-1,0.8-1.3,1.3c-0.3,0.5-0.6,1.1-0.7,1.8
				c-0.1,0.7-0.2,1.3-0.2,2V-107.8z"/>
			<path class="st2" d="M234.2-100.8c-0.9,0-1.8-0.2-2.6-0.5c-0.8-0.4-1.4-0.8-2-1.4c-0.6-0.6-1-1.3-1.3-2.1
				c-0.3-0.8-0.5-1.7-0.5-2.6v-0.5c0-1,0.2-1.9,0.5-2.7c0.3-0.8,0.7-1.6,1.3-2.2c0.5-0.6,1.2-1.1,1.9-1.5c0.7-0.4,1.5-0.5,2.4-0.5
				c0.9,0,1.7,0.2,2.4,0.5c0.7,0.3,1.3,0.8,1.8,1.3c0.5,0.6,0.8,1.2,1.1,2c0.2,0.8,0.4,1.6,0.4,2.4v0.9h-10.2v0.3
				c0,0.7,0.1,1.4,0.4,2c0.2,0.7,0.6,1.2,1,1.7c0.4,0.5,0.9,0.9,1.5,1.2c0.6,0.3,1.3,0.4,2,0.4c0.8,0,1.6-0.1,2.3-0.5
				c0.7-0.3,1.3-0.8,1.7-1.4l1,0.7c-0.3,0.4-0.5,0.7-0.9,1c-0.3,0.3-0.7,0.6-1.2,0.8c-0.4,0.2-0.9,0.4-1.4,0.5
				C235.3-100.9,234.7-100.8,234.2-100.8z M233.9-113.7c-0.6,0-1.2,0.1-1.7,0.3c-0.5,0.2-1,0.6-1.3,1c-0.4,0.4-0.7,0.9-1,1.5
				c-0.3,0.6-0.4,1.2-0.5,1.8h8.6v-0.2c0-0.6-0.1-1.1-0.3-1.6c-0.2-0.5-0.5-1-0.8-1.4c-0.3-0.4-0.8-0.7-1.3-1
				C235.1-113.6,234.5-113.7,233.9-113.7z"/>
			<path class="st2" d="M242.7-108c0-1,0.1-1.9,0.4-2.7c0.3-0.8,0.7-1.6,1.3-2.2c0.5-0.6,1.2-1.1,2-1.5c0.8-0.4,1.7-0.5,2.7-0.5
				c1,0,1.9,0.2,2.7,0.5c0.8,0.4,1.5,0.8,2,1.5c0.5,0.6,1,1.4,1.3,2.2c0.3,0.8,0.4,1.8,0.4,2.7v0.3c0,1-0.1,1.9-0.4,2.8
				c-0.3,0.8-0.7,1.6-1.2,2.2c-0.5,0.6-1.2,1.1-2,1.5c-0.8,0.3-1.7,0.5-2.7,0.5c-1,0-1.9-0.2-2.7-0.5c-0.8-0.3-1.5-0.8-2-1.5
				c-0.5-0.6-1-1.4-1.3-2.2c-0.3-0.8-0.4-1.8-0.4-2.8V-108z M246.2-107.8c0,0.6,0.1,1.1,0.2,1.6c0.1,0.5,0.3,0.9,0.5,1.3
				c0.2,0.4,0.5,0.7,0.9,0.9c0.4,0.2,0.8,0.3,1.4,0.3c0.5,0,1-0.1,1.3-0.3c0.4-0.2,0.7-0.5,0.9-0.9c0.2-0.4,0.4-0.8,0.5-1.3
				c0.1-0.5,0.2-1,0.2-1.6v-0.3c0-0.6-0.1-1.1-0.2-1.6c-0.1-0.5-0.3-0.9-0.5-1.3c-0.2-0.4-0.5-0.7-0.9-0.9c-0.4-0.2-0.8-0.3-1.3-0.3
				c-0.5,0-1,0.1-1.3,0.3c-0.4,0.2-0.7,0.5-0.9,0.9c-0.2,0.4-0.4,0.8-0.5,1.3c-0.1,0.5-0.2,1-0.2,1.6V-107.8z"/>
			<path class="st2" d="M268.4-115c0.5,0,1,0,1.5,0.1c0.4,0.1,0.8,0.1,1.1,0.2l-0.5,3.5c-0.5-0.1-0.9-0.2-1.4-0.2
				c-0.5-0.1-0.9-0.1-1.4-0.1c-1,0-1.8,0.2-2.4,0.6c-0.6,0.4-1,0.9-1.3,1.6v8.2h-3.5v-13.6h3.3l0.2,2.2c0.6-0.8,1.2-1.4,2-1.8
				C266.7-114.7,267.5-115,268.4-115z"/>
			<path class="st2" d="M286.4-107.8c0,1-0.1,1.9-0.3,2.8c-0.2,0.8-0.6,1.6-1,2.2c-0.4,0.6-1,1.1-1.7,1.4c-0.7,0.3-1.4,0.5-2.3,0.5
				c-0.8,0-1.5-0.1-2.1-0.4c-0.6-0.3-1.1-0.7-1.5-1.3l-0.2,1.4h-3.1v-19.3h3.5v6.9c0.4-0.5,0.9-0.8,1.4-1.1c0.5-0.3,1.2-0.4,1.9-0.4
				c0.9,0,1.7,0.2,2.3,0.5c0.7,0.3,1.2,0.8,1.7,1.4c0.4,0.6,0.8,1.3,1,2.2c0.2,0.9,0.3,1.8,0.3,2.8V-107.8z M282.9-108
				c0-0.6,0-1.1-0.1-1.6c-0.1-0.5-0.2-0.9-0.4-1.3c-0.2-0.4-0.5-0.7-0.8-0.9c-0.4-0.2-0.8-0.3-1.3-0.3c-0.6,0-1.2,0.1-1.6,0.4
				c-0.4,0.3-0.7,0.6-0.9,1.1v5.4c0.2,0.5,0.5,0.8,0.9,1.1c0.4,0.3,0.9,0.4,1.6,0.4c0.5,0,1-0.1,1.3-0.3c0.3-0.2,0.6-0.5,0.8-0.9
				c0.2-0.4,0.4-0.8,0.4-1.3c0.1-0.5,0.1-1,0.1-1.6V-108z"/>
			<path class="st2" d="M290.5-114.7h7.4v10.8h3.7v2.8h-11.1v-2.8h3.9v-7.9h-3.9V-114.7z M294.1-118.2c0-0.3,0-0.5,0.1-0.7
				c0.1-0.2,0.2-0.4,0.4-0.6c0.2-0.2,0.4-0.3,0.6-0.4c0.2-0.1,0.5-0.1,0.8-0.1c0.6,0,1.1,0.2,1.5,0.5c0.4,0.3,0.5,0.8,0.5,1.3
				c0,0.5-0.2,1-0.5,1.3c-0.4,0.3-0.9,0.5-1.5,0.5c-0.3,0-0.6,0-0.8-0.1c-0.2-0.1-0.5-0.2-0.6-0.4c-0.2-0.2-0.3-0.4-0.4-0.6
				C294.2-117.7,294.1-117.9,294.1-118.2z"/>
			<path class="st2" d="M311.4-118v3.3h5.1v2.6h-5.1v5.9c0,0.5,0.1,0.9,0.2,1.2c0.1,0.3,0.3,0.6,0.5,0.8c0.2,0.2,0.5,0.3,0.8,0.4
				c0.3,0.1,0.6,0.1,1,0.1c0.3,0,0.5,0,0.8,0c0.3,0,0.5-0.1,0.8-0.1c0.3,0,0.5-0.1,0.7-0.1c0.2,0,0.4-0.1,0.6-0.1l0.3,2.4
				c-0.2,0.1-0.5,0.3-0.9,0.4c-0.3,0.1-0.7,0.2-1,0.3c-0.4,0.1-0.8,0.1-1.2,0.2c-0.4,0-0.8,0.1-1.2,0.1c-0.7,0-1.4-0.1-2-0.3
				c-0.6-0.2-1.1-0.5-1.6-0.9c-0.4-0.4-0.8-0.9-1-1.6c-0.2-0.6-0.4-1.4-0.4-2.3v-6.2h-3.1v-2.6h3.1v-3.3H311.4z"/>
		</g>
	</g>
</g>
<path class="st0" d="M760.1-7c0-21.8,17.7-39.5,39.5-39.5v-39.5c-43.6,0-79,35.3-79,79s35.3,79,79,79V32.5
	C777.7,32.5,760.1,14.9,760.1-7z"/>
<path class="st1" d="M608.6-5.9c0-22.1-17.9-40-40-40v-40c44.2,0,80,35.8,80,80s-35.8,80-80,80v-40C590.7,34.1,608.6,16.2,608.6-5.9
	z"/>
</svg>
