<?xml version="1.0" encoding="utf-8"?>
<!-- Generator: Adobe Illustrator 22.1.0, SVG Export Plug-In . SVG Version: 6.00 Build 0)  -->
<svg version="1.1" id="Layer_1" xmlns="http://www.w3.org/2000/svg" xmlns:xlink="http://www.w3.org/1999/xlink" x="0px" y="0px"
	 viewBox="0 0 600 1000" style="enable-background:new 0 0 600 1000;" xml:space="preserve">
<style type="text/css">
	.st0{fill:#FF5F5F;}
	.st1{fill:#436068;}
	.st2{fill:#4F6D77;}
	.st3{fill:#648993;}
	.st4{fill:#DFE7FF;}
	.st5{fill:#311354;}
	.st6{fill:#AC9FFF;}
</style>
<g>
	<path class="st0" d="M166.8,546.4c0,0-105.9,138.9-132.3,258C23.1,855.8,21.3,881,47.7,881s6.6-43.6,72.8-89.9s79.4-13.2,79.4-13.2
		L166.8,546.4z"/>
	<path class="st0" d="M436.8,546.4c0,0,105.9,138.9,132.3,258c11.4,51.4,13.2,76.6-13.2,76.6s-6.6-43.6-72.8-89.9
		s-79.4-13.2-79.4-13.2L436.8,546.4z"/>
</g>
<path class="st1" d="M367,802.6H236c0,0,3,20.6,6.1,39.4c3,18.8,8,28.5,17.9,28.5h83c9.9,0,14.9-8.5,17.9-28.5
	C364,822,367,802.6,367,802.6z"/>
<path class="st2" d="M410.7,759H192.4c0,0,5.1,26.5,10.2,50.7c5.1,24.2,13.4,36.6,29.8,36.6h138.4c16.5,0,24.8-10.9,29.8-36.6
	S410.7,759,410.7,759z"/>
<path class="st3" d="M185.5,784.5h231.9c18.8,0,34.6-14.4,36.3-33.1c5.4-59.4,15-190.3,9.9-324.1C456.7,246,331.3,142.8,318.1,129.6
	c-13.2-13.2-19.8-13.2-33.1,0c-13.2,13.2-138.6,104.7-145.5,297.7c-5.1,141.1,4.3,266.8,9.8,324.2
	C151,770.2,166.7,784.5,185.5,784.5z"/>
<ellipse class="st4" cx="300.8" cy="381" rx="69.1" ry="119.1"/>
<ellipse class="st5" cx="300.8" cy="381" rx="54.3" ry="93.6"/>
<path class="st6" d="M335.3,342.7c0-16.4-15.5-38.3-34.5-38.3c-19.1,0-34.5,21.8-34.5,38.3c0,16.4,15.5-4.3,34.5-4.3
	C319.8,338.4,335.3,359.1,335.3,342.7z"/>
<path class="st0" d="M323.9,678.9c0,82.2-10.4,202.2-23.2,202.2c-12.8,0-23.2-120-23.2-202.2s10.4-95.5,23.2-95.5
	C313.5,583.4,323.9,596.7,323.9,678.9z"/>
</svg>
