<?xml version="1.0" encoding="utf-8"?>
<!-- Generator: Adobe Illustrator 22.1.0, SVG Export Plug-In . SVG Version: 6.00 Build 0)  -->
<svg version="1.1" id="Layer_1" xmlns="http://www.w3.org/2000/svg" xmlns:xlink="http://www.w3.org/1999/xlink" x="0px" y="0px"
	 viewBox="0 0 64 64" style="enable-background:new 0 0 64 64;" xml:space="preserve">
<style type="text/css">
	.st0{fill:#FFFFFF;}
</style>
<path class="st0" d="M32,32c8.4,8.4,11.1,20.2,8.3,30.9c-5.6,1.5-11.5,1.4-17.1-0.2c3.6-6.1,2.8-14.2-2.5-19.4
	C15.4,38,7.4,37.2,1.2,40.8c-1.6-5.6-1.6-11.5-0.2-17.1C11.8,20.9,23.6,23.6,32,32z"/>
<path class="st0" d="M62.8,23.2c1.6,5.6,1.6,11.5,0.2,17.1C52.2,43.1,40.4,40.4,32,32c-8.4-8.4-11.1-20.2-8.3-30.9
	c5.6-1.5,11.5-1.4,17.1,0.2c-3.6,6.1-2.8,14.2,2.5,19.4C48.6,26,56.6,26.8,62.8,23.2z"/>
<path class="st0" d="M32,32c8.4,8.4,11.1,20.2,8.3,30.9c-5.6,1.5-11.5,1.4-17.1-0.2c3.6-6.1,2.8-14.2-2.5-19.4
	C15.4,38,7.4,37.2,1.2,40.8c-1.6-5.6-1.6-11.5-0.2-17.1C11.8,20.9,23.6,23.6,32,32z"/>
<path class="st0" d="M62.8,23.2c1.6,5.6,1.6,11.5,0.2,17.1C52.2,43.1,40.4,40.4,32,32c-8.4-8.4-11.1-20.2-8.3-30.9
	c5.6-1.5,11.5-1.4,17.1,0.2c-3.6,6.1-2.8,14.2,2.5,19.4C48.6,26,56.6,26.8,62.8,23.2z"/>
</svg>
